<svg width="600" height="440" viewBox="0 0 600 440" fill="none" xmlns="http://www.w3.org/2000/svg">
<path d="M600 419.861H0L107.705 356.188H493.943L600 419.861Z" fill="#D0F0E4"/>
<path d="M344.008 108.578H236.062V46.0906C236.062 41.8596 239.488 38.4299 243.714 38.4299H336.356C340.582 38.4299 344.008 41.8596 344.008 46.0906V108.578V108.578Z" fill="white"/>
<path fill-rule="evenodd" clip-rule="evenodd" d="M243.715 38.9108C239.754 38.9108 236.543 42.1252 236.543 46.0907V108.097H343.528V46.0907C343.528 42.1252 340.317 38.9108 336.356 38.9108H243.715ZM344.008 108.578H344.488V46.0907C344.488 41.5941 340.847 37.9492 336.356 37.9492H243.715C239.223 37.9492 235.582 41.5941 235.582 46.0907V109.059H344.008V108.578Z" fill="#66B0F0"/>
<path d="M335.86 104.507H244.659C242.258 104.507 240.305 102.552 240.305 100.148V46.5875C240.305 44.1835 242.258 42.2283 244.659 42.2283H335.86C338.261 42.2283 340.214 44.1835 340.214 46.5875V100.164C340.214 102.568 338.261 104.507 335.86 104.507Z" fill="#66B0F0"/>
<path d="M362.931 123.242C367.061 125.934 366.1 131.207 361.218 131.207H214.163C210.049 131.207 208.64 125.646 212.674 123.098L362.931 123.242Z" fill="#66B0F0"/>
<path fill-rule="evenodd" clip-rule="evenodd" d="M212.535 122.617L363.073 122.761L363.192 122.839C365.391 124.273 366.304 126.447 365.924 128.33C365.538 130.241 363.852 131.688 361.217 131.688H214.162C211.852 131.688 210.296 130.112 209.893 128.208C209.489 126.302 210.23 124.073 212.417 122.691L212.535 122.617ZM212.815 123.579C211.059 124.748 210.518 126.528 210.832 128.008C211.153 129.522 212.358 130.726 214.162 130.726H361.217C363.464 130.726 364.7 129.537 364.982 128.139C365.265 126.741 364.626 124.978 362.784 123.723L212.815 123.579Z" fill="#66B0F0"/>
<path d="M361.216 127.537H214.162C211.537 127.537 210.496 124.444 212.673 123.098L236.094 108.578H343.703L362.913 123.242C364.834 124.701 363.714 127.537 361.216 127.537Z" fill="white"/>
<path fill-rule="evenodd" clip-rule="evenodd" d="M235.958 108.097H343.866L363.204 122.859C364.343 123.724 364.597 125.03 364.169 126.114C363.744 127.19 362.661 128.018 361.217 128.018H214.162C212.644 128.018 211.544 127.114 211.162 125.976C210.777 124.83 211.136 123.484 212.421 122.689L212.421 122.689M212.421 122.689L235.958 108.097ZM236.231 109.059L212.927 123.507L212.926 123.507C212.034 124.059 211.825 124.932 212.072 125.67C212.323 126.415 213.056 127.057 214.162 127.057H361.217C362.27 127.057 362.997 126.467 363.276 125.76C363.552 125.061 363.405 124.219 362.624 123.626L343.541 109.059H236.231Z" fill="#66B0F0"/>
<path d="M344.248 123.162H231.132C229.115 123.162 228.314 120.774 229.979 119.749L246.244 108.578H330.769L345.545 119.861C347.034 120.983 346.169 123.162 344.248 123.162Z" fill="white"/>
<path fill-rule="evenodd" clip-rule="evenodd" d="M246.095 108.097H330.931L345.833 119.477C345.834 119.477 345.834 119.477 345.835 119.478C346.757 120.173 346.968 121.23 346.622 122.109C346.278 122.98 345.403 123.643 344.248 123.643H231.132C229.916 123.643 229.029 122.913 228.719 121.994C228.408 121.07 228.693 119.982 229.717 119.346L246.095 108.097ZM246.393 109.059L230.241 120.152L230.231 120.158C229.598 120.548 229.454 121.163 229.63 121.687C229.808 122.217 230.33 122.682 231.132 122.682H344.248C345.014 122.682 345.531 122.255 345.728 121.756C345.922 121.265 345.822 120.671 345.256 120.245L345.255 120.244L345.253 120.243L330.606 109.059H246.393Z" fill="#66B0F0"/>
<path fill-rule="evenodd" clip-rule="evenodd" d="M337.908 123.505L323.116 108.921L323.79 108.236L338.582 122.82L337.908 123.505Z" fill="#66B0F0"/>
<path fill-rule="evenodd" clip-rule="evenodd" d="M328.281 123.483L315.25 108.898L315.966 108.257L328.997 122.841L328.281 123.483Z" fill="#66B0F0"/>
<path fill-rule="evenodd" clip-rule="evenodd" d="M319.199 123.457L307.897 108.873L308.656 108.284L319.958 122.868L319.199 123.457Z" fill="#66B0F0"/>
<path fill-rule="evenodd" clip-rule="evenodd" d="M309.236 123.426L299.679 108.842L300.482 108.315L310.039 122.899L309.236 123.426Z" fill="#66B0F0"/>
<path fill-rule="evenodd" clip-rule="evenodd" d="M297.478 123.309L292.819 108.725L293.734 108.432L298.393 123.016L297.478 123.309Z" fill="#66B0F0"/>
<path fill-rule="evenodd" clip-rule="evenodd" d="M237.982 122.82L252.774 108.236L253.448 108.921L238.656 123.505L237.982 122.82Z" fill="#66B0F0"/>
<path fill-rule="evenodd" clip-rule="evenodd" d="M247.567 122.842L260.598 108.258L261.314 108.899L248.283 123.483L247.567 122.842Z" fill="#66B0F0"/>
<path fill-rule="evenodd" clip-rule="evenodd" d="M256.606 122.868L267.908 108.284L268.667 108.873L257.365 123.457L256.606 122.868Z" fill="#66B0F0"/>
<path fill-rule="evenodd" clip-rule="evenodd" d="M266.525 122.899L276.082 108.315L276.885 108.842L267.328 123.427L266.525 122.899Z" fill="#66B0F0"/>
<path fill-rule="evenodd" clip-rule="evenodd" d="M278.171 123.016L282.83 108.432L283.745 108.725L279.086 123.309L278.171 123.016Z" fill="#66B0F0"/>
<path fill-rule="evenodd" clip-rule="evenodd" d="M288.378 108.578V123.339H287.417V108.578H288.378Z" fill="#66B0F0"/>
<path fill-rule="evenodd" clip-rule="evenodd" d="M337.924 114.508H238.319V113.546H337.924V114.508Z" fill="#66B0F0"/>
<path d="M328.271 104.507H247.284L248.741 94.1696C249.637 87.8071 254.2 82.5825 260.363 80.8196L280.102 76.7168H295.454L315.192 80.8196C321.372 82.5665 325.934 87.8071 326.814 94.1696L328.271 104.507Z" fill="#FFCF2D"/>
<path d="M293.244 88.5282L287.401 82.6144C287.273 82.4862 287.273 82.2779 287.401 82.1657C287.529 82.0375 287.737 82.0375 287.849 82.1657L293.212 87.5987L301.537 78.1591C301.649 78.0309 301.857 78.0148 301.985 78.127C302.113 78.2392 302.129 78.4476 302.017 78.5758L293.244 88.5282Z" fill="white"/>
<path d="M282.39 88.5286L273.618 78.5761C273.506 78.4479 273.506 78.2396 273.65 78.1274C273.778 78.0152 273.986 78.0152 274.098 78.1594L282.422 87.599L287.785 82.1661C287.913 82.0378 288.105 82.0378 288.234 82.1661C288.362 82.2943 288.362 82.4866 288.234 82.6148L282.39 88.5286Z" fill="white"/>
<path d="M287.914 92.3909C287.145 92.3909 286.521 91.7659 286.521 90.9966C286.521 90.2273 287.145 89.6023 287.914 89.6023C288.682 89.6023 289.306 90.2273 289.306 90.9966C289.306 91.7659 288.682 92.3909 287.914 92.3909ZM287.914 90.2434C287.497 90.2434 287.161 90.5799 287.161 90.9966C287.161 91.4133 287.497 91.7498 287.914 91.7498C288.33 91.7498 288.666 91.4133 288.666 90.9966C288.666 90.5799 288.33 90.2434 287.914 90.2434Z" fill="white"/>
<path d="M287.914 100.244C287.145 100.244 286.521 99.6186 286.521 98.8494C286.521 98.0801 287.145 97.4551 287.914 97.4551C288.682 97.4551 289.306 98.0801 289.306 98.8494C289.306 99.6186 288.682 100.244 287.914 100.244ZM287.914 98.0961C287.497 98.0961 287.161 98.4327 287.161 98.8494C287.161 99.2661 287.497 99.6026 287.914 99.6026C288.33 99.6026 288.666 99.2661 288.666 98.8494C288.666 98.4327 288.33 98.0961 287.914 98.0961Z" fill="white"/>
<path d="M280.006 104.171H253.848L246.869 83.4323L273.027 75.9319L280.006 104.171Z" fill="white"/>
<path fill-rule="evenodd" clip-rule="evenodd" d="M273.257 75.532L280.414 104.491H253.617L246.457 83.2163L273.257 75.532ZM247.278 83.6478L254.077 103.85H279.596L272.795 76.3313L247.278 83.6478Z" fill="#66B0F0"/>
<path d="M255.208 86.1247H254.712C253.447 86.1247 252.422 85.099 252.422 83.833V76.6371C252.422 76.1242 252.839 75.7075 253.351 75.7075H255.512C256.024 75.7075 256.44 76.1242 256.44 76.6371V84.8747C256.457 85.5638 255.896 86.1247 255.208 86.1247Z" fill="white"/>
<path fill-rule="evenodd" clip-rule="evenodd" d="M253.351 76.0278C253.015 76.0278 252.743 76.301 252.743 76.6368V83.8327C252.743 84.9218 253.624 85.804 254.712 85.804H255.208C255.721 85.804 256.132 85.3867 256.12 84.8819L256.12 84.8781V76.6368C256.12 76.301 255.847 76.0278 255.512 76.0278H253.351ZM252.102 76.6368C252.102 75.9469 252.662 75.3867 253.351 75.3867H255.512C256.201 75.3867 256.761 75.9469 256.761 76.6368V84.8709C256.779 85.7425 256.07 86.445 255.208 86.445H254.712C253.27 86.445 252.102 85.2758 252.102 83.8327V76.6368Z" fill="#66B0F0"/>
<path d="M265.742 86.1247H266.238C267.503 86.1247 268.527 85.099 268.527 83.833V76.6371C268.527 76.1242 268.111 75.7075 267.599 75.7075H265.422C264.909 75.7075 264.493 76.1242 264.493 76.6371V84.8747C264.493 85.5638 265.053 86.1247 265.742 86.1247Z" fill="white"/>
<path d="M259.226 86.9577H258.073C257.177 86.9577 256.456 86.2365 256.456 85.3391V76.6527C256.456 76.1398 256.873 75.7231 257.385 75.7231H259.546C260.058 75.7231 260.475 76.1398 260.475 76.6527V85.7077C260.475 86.3968 259.914 86.9577 259.226 86.9577Z" fill="white"/>
<path d="M263.26 87.2786H262.3C261.291 87.2786 260.475 86.4613 260.475 85.4516V76.6371C260.475 76.1242 260.891 75.7075 261.403 75.7075H263.564C264.076 75.7075 264.493 76.1242 264.493 76.6371V86.0286C264.493 86.7177 263.932 87.2786 263.26 87.2786Z" fill="white"/>
<path fill-rule="evenodd" clip-rule="evenodd" d="M264.172 76.6368C264.172 75.9469 264.732 75.3867 265.421 75.3867H267.598C268.287 75.3867 268.847 75.9469 268.847 76.6368V83.8327C268.847 85.2758 267.679 86.445 266.238 86.445H265.741C264.876 86.445 264.172 85.7406 264.172 84.8744V76.6368ZM265.421 76.0278C265.086 76.0278 264.813 76.301 264.813 76.6368V84.8744C264.813 85.3865 265.23 85.804 265.741 85.804H266.238C267.325 85.804 268.207 84.9218 268.207 83.8327V76.6368C268.207 76.301 267.934 76.0278 267.598 76.0278H265.421Z" fill="#66B0F0"/>
<path fill-rule="evenodd" clip-rule="evenodd" d="M257.385 76.0439C257.05 76.0439 256.777 76.3171 256.777 76.6529V85.3393C256.777 86.0597 257.354 86.6374 258.073 86.6374H259.226C259.738 86.6374 260.155 86.22 260.155 85.7079V76.6529C260.155 76.3171 259.882 76.0439 259.546 76.0439H257.385ZM256.136 76.6529C256.136 75.963 256.696 75.4028 257.385 75.4028H259.546C260.235 75.4028 260.795 75.963 260.795 76.6529V85.7079C260.795 86.574 260.091 87.2785 259.226 87.2785H258.073C257 87.2785 256.136 86.4138 256.136 85.3393V76.6529Z" fill="#66B0F0"/>
<path fill-rule="evenodd" clip-rule="evenodd" d="M261.404 76.0278C261.068 76.0278 260.795 76.301 260.795 76.6368V85.4514C260.795 86.284 261.468 86.9578 262.3 86.9578H263.261C263.753 86.9578 264.173 86.5431 264.173 86.0283V76.6368C264.173 76.301 263.9 76.0278 263.565 76.0278H261.404ZM260.155 76.6368C260.155 75.9469 260.714 75.3867 261.404 75.3867H263.565C264.254 75.3867 264.813 75.9469 264.813 76.6368V86.0283C264.813 86.8918 264.113 87.5989 263.261 87.5989H262.3C261.115 87.5989 260.155 86.6381 260.155 85.4514V76.6368Z" fill="#66B0F0"/>
<path d="M295.47 67.2935V78.9928C295.47 81.0121 292.028 82.6629 287.786 82.6629C283.543 82.6629 280.102 81.0121 280.102 78.9928V67.2935H295.47Z" fill="white"/>
<path d="M295.469 67.2935C295.469 76.1241 289.817 78.7524 284.391 78.2876C284.375 78.2876 284.359 78.2876 284.343 78.2876C281.941 78.0633 280.116 76.0119 280.116 73.6079V67.3095H295.469V67.2935Z" fill="#66B0F0"/>
<path d="M299.04 64.2802V64.8732C299.04 66.1874 297.983 67.2451 296.67 67.2451H295.454L295.47 67.5176C295.47 71.2999 292.412 74.3609 288.634 74.3609H286.953C283.175 74.3609 280.118 71.2999 280.118 67.5176L280.133 67.2451H278.917C277.604 67.2451 276.548 66.1874 276.548 64.8732V64.2802C276.548 62.9661 277.604 61.9083 278.917 61.9083H280.47L280.646 59.0075C280.646 58.5588 280.71 58.1261 280.838 57.7254C285.416 58.8633 290.779 55.9144 292.22 55.033C293.821 55.642 294.957 57.1805 294.957 58.9915L295.133 61.8923H296.686C297.983 61.9083 299.04 62.9661 299.04 64.2802Z" fill="white"/>
<path d="M296.782 61.9084H295.118L294.941 59.0076C294.941 57.1967 293.805 55.6581 292.204 55.0491C290.763 55.9145 285.4 58.8634 280.822 57.7415C280.694 58.1422 280.63 58.5749 280.63 59.0237L280.454 61.9245H279.413C279.413 61.9245 277.284 51.6034 279.381 49.7123C280.934 48.318 295.15 51.363 296.718 53.5266C297.599 54.7606 296.782 61.9084 296.782 61.9084Z" fill="#E57281"/>
<path d="M292.78 61.2836C292.732 61.2836 292.668 61.2676 292.62 61.2195C292.604 61.2035 291.563 60.3541 289.899 60.3541C289.77 60.3541 289.658 60.2419 289.658 60.1137C289.658 59.9855 289.77 59.8733 289.899 59.8733C291.74 59.8733 292.876 60.8028 292.924 60.8509C293.02 60.931 293.036 61.0913 292.956 61.1875C292.924 61.2516 292.844 61.2836 292.78 61.2836Z" fill="#66B0F0"/>
<path d="M286.697 66.2518C286.665 66.2518 286.633 66.2518 286.617 66.2357C286.489 66.1877 286.425 66.0434 286.473 65.9312C286.921 64.7453 286.809 63.2548 286.185 61.9407C285.817 61.1393 285.288 60.5624 284.824 60.4021C283.799 60.0495 282.359 60.5463 282.343 60.5463C282.215 60.5944 282.087 60.5303 282.039 60.4021C281.991 60.2739 282.055 60.1457 282.183 60.0976C282.247 60.0816 283.783 59.5527 284.968 59.9534C285.56 60.1617 286.169 60.8188 286.601 61.7483C287.273 63.1747 287.385 64.8094 286.905 66.1235C286.889 66.1877 286.793 66.2518 286.697 66.2518Z" fill="#66B0F0"/>
<path d="M289.851 68.8003C289.867 68.9285 289.755 69.0407 289.627 69.0567H289.611C289.483 69.0567 289.387 68.9606 289.371 68.8324C289.355 68.6721 289.323 68.5119 289.275 68.3676C288.587 68.7042 287.962 68.8164 287.45 68.8164C286.441 68.8164 285.833 68.3997 285.801 68.3676C285.689 68.2875 285.673 68.1432 285.737 68.0311C285.817 67.9189 285.961 67.9028 286.073 67.967C286.105 67.983 286.617 68.3356 287.45 68.3356C287.898 68.3356 288.442 68.2394 289.067 67.9349C288.971 67.7746 288.875 67.6785 288.875 67.6785C288.779 67.5823 288.795 67.4221 288.891 67.3419C288.987 67.2618 289.147 67.2618 289.227 67.3579C289.259 67.406 289.803 68.015 289.851 68.8003Z" fill="#66B0F0"/>
<path d="M290.715 64.2197C290.936 64.2059 291.092 63.8367 291.065 63.395C291.037 62.9532 290.836 62.6063 290.616 62.6201C290.395 62.6339 290.238 63.0031 290.266 63.4448C290.293 63.8865 290.494 64.2335 290.715 64.2197Z" fill="#66B0F0"/>
<path d="M284.18 64.1558C284.383 64.1431 284.527 63.8034 284.501 63.397C284.476 62.9906 284.291 62.6714 284.088 62.6841C283.885 62.6968 283.741 63.0365 283.766 63.4429C283.792 63.8493 283.977 64.1684 284.18 64.1558Z" fill="#66B0F0"/>
<path d="M279.701 65.0498C279.573 65.0498 279.461 64.9376 279.461 64.8094C279.461 64.1042 278.885 63.5433 278.197 63.5433C278.068 63.5433 277.956 63.4311 277.956 63.3029C277.956 63.1747 278.068 63.0625 278.197 63.0625C279.157 63.0625 279.941 63.8478 279.941 64.8094C279.941 64.9536 279.829 65.0498 279.701 65.0498Z" fill="#66B0F0"/>
<path d="M295.806 65.0498C295.678 65.0498 295.566 64.9376 295.566 64.8094C295.566 63.8478 296.35 63.0625 297.311 63.0625C297.439 63.0625 297.551 63.1747 297.551 63.3029C297.551 63.4311 297.439 63.5433 297.311 63.5433C296.606 63.5433 296.046 64.1202 296.046 64.8094C296.046 64.9536 295.95 65.0498 295.806 65.0498Z" fill="#66B0F0"/>
<path fill-rule="evenodd" clip-rule="evenodd" d="M79.8698 192.904C81.2578 188.099 85.6399 184.8 90.6247 184.8H506.767C511.7 184.8 516.065 188.031 517.488 192.754L517.488 192.755M80.7925 193.171L15.3657 419.994L14.4429 419.727L79.8698 192.904L79.8698 192.904M80.7925 193.171C80.7925 193.171 80.7926 193.171 80.7926 193.171C82.062 188.777 86.0684 185.762 90.6247 185.762H506.767C511.279 185.762 515.269 188.717 516.568 193.032L516.568 193.033L585.133 420L586.052 419.722L517.488 192.755" fill="#66B0F0"/>
<path fill-rule="evenodd" clip-rule="evenodd" d="M386.638 109.059H204.621V108.098H386.638V109.059Z" fill="#66B0F0"/>
<path d="M267.791 143.068H310.79V180.041H267.791C267.791 180.041 267.791 141.674 267.791 143.068Z" fill="#FFCF2D"/>
<path d="M428.58 314.856L408.586 265.014H440.779L428.58 314.856Z" fill="#9A3B82"/>
<path d="M373.719 198.488C378.009 190.362 386.446 185.282 395.619 185.282H420.384L437.209 198.488H373.719Z" fill="#9A3B82"/>
<path d="M467.609 256.84H405.224L428.708 313.91C427.076 311.25 417.294 314.023 406.937 320.385C396.707 326.668 389.792 334.232 391.2 336.989L340.582 248.811C327.455 226.566 343.463 198.488 369.269 198.488H509.071L509.375 199.449C518.5 227.816 497.369 256.84 467.609 256.84Z" fill="#3FB1B5"/>
<path d="M511.489 214.851C511.265 220.059 510.112 225.092 508.159 229.756L434.84 198.504H507.615L509.312 203.472C510.496 206.453 511.153 210.636 511.489 214.851Z" fill="#E6E6E6"/>
<path d="M428.725 313.91C430.357 316.571 423.218 323.831 412.876 330.193C402.519 336.556 392.897 339.745 391.264 337.085C389.632 334.424 396.595 326.908 406.953 320.545C417.294 314.183 427.076 311.25 428.725 313.91Z" fill="#66B0F0"/>
<path fill-rule="evenodd" clip-rule="evenodd" d="M475.53 202.553C475.79 202.498 476.045 202.664 476.099 202.924C478.628 214.922 469.483 226.214 457.236 226.214H368.564C361.617 226.214 357.252 233.702 360.642 239.761C360.642 239.761 360.643 239.761 360.643 239.761L406.17 320.341C406.301 320.572 406.219 320.865 405.988 320.996C405.758 321.127 405.465 321.045 405.334 320.814L359.806 240.233L359.805 240.231C356.056 233.534 360.88 225.252 368.564 225.252H457.236C468.873 225.252 477.562 214.523 475.159 203.123C475.105 202.863 475.271 202.608 475.53 202.553Z" fill="white"/>
<path fill-rule="evenodd" clip-rule="evenodd" d="M421.887 313.542C418.186 314.464 413.242 316.729 407.195 320.256C401.837 323.383 397.415 327.042 394.543 330.236C393.105 331.836 392.071 333.301 391.498 334.509C391.211 335.113 391.048 335.634 390.999 336.062C390.949 336.49 391.014 336.795 391.145 337.009C391.284 337.235 391.214 337.531 390.988 337.67C390.762 337.809 390.466 337.739 390.327 337.513C390.05 337.061 389.978 336.52 390.045 335.951C390.11 335.383 390.316 334.758 390.63 334.096C391.258 332.772 392.358 331.229 393.829 329.593C396.776 326.316 401.278 322.596 406.711 319.425L406.711 319.425C412.782 315.884 417.82 313.565 421.655 312.608C423.571 312.131 425.224 311.984 426.57 312.22C427.931 312.459 428.991 313.094 429.66 314.169C429.801 314.394 429.732 314.691 429.507 314.831C429.282 314.972 428.986 314.903 428.845 314.678C428.346 313.877 427.549 313.368 426.404 313.167C425.243 312.963 423.738 313.08 421.887 313.542Z" fill="white"/>
<path fill-rule="evenodd" clip-rule="evenodd" d="M399.675 243.335C399.92 243.232 400.202 243.348 400.304 243.593L430.048 314.59C430.151 314.835 430.036 315.117 429.791 315.219C429.546 315.322 429.265 315.207 429.162 314.962L399.418 243.964C399.316 243.72 399.431 243.438 399.675 243.335Z" fill="white"/>
<path fill-rule="evenodd" clip-rule="evenodd" d="M440.091 198.44H367.524V197.478H440.091V198.44Z" fill="white"/>
<path d="M408.569 340.755L404.247 334.857L398.292 326.748C400.725 324.696 403.654 322.565 406.936 320.545C413.468 316.539 419.759 313.878 423.937 313.141L426.835 318.927L430.453 326.139C427.891 335.258 408.569 340.755 408.569 340.755Z" fill="#E57281"/>
<path d="M426.85 318.927C424.16 322.212 419.102 326.363 412.874 330.193C409.881 332.036 406.951 333.607 404.262 334.857L398.306 326.748C400.74 324.696 403.669 322.565 406.951 320.545C413.483 316.539 419.774 313.878 423.952 313.141L426.85 318.927Z" fill="#9A3B82"/>
<path d="M450.241 357.919L406.314 389.508C402.584 392.104 396.788 394.267 397.557 384.876C398.629 371.926 401.495 352.663 408.571 340.739C408.875 340.659 427.893 335.162 430.454 326.123L450.481 340.37C456.244 344.858 456.116 353.608 450.241 357.919Z" fill="white"/>
<path fill-rule="evenodd" clip-rule="evenodd" d="M430.177 325.336L450.767 339.984L450.775 339.991C456.789 344.674 456.656 353.807 450.524 358.307L450.522 358.308L406.589 389.9L406.586 389.902C405.635 390.565 404.54 391.208 403.44 391.646C402.348 392.082 401.202 392.337 400.167 392.161C399.096 391.979 398.196 391.345 397.639 390.127C397.095 388.941 396.882 387.219 397.077 384.837L397.077 384.836C397.614 378.348 398.601 370.272 400.342 362.32C402.082 354.374 404.581 346.519 408.157 340.493L408.257 340.324L408.447 340.274C408.447 340.274 408.449 340.273 408.452 340.273L408.467 340.268C408.479 340.265 408.497 340.26 408.518 340.254C408.562 340.241 408.623 340.223 408.7 340.2C408.854 340.154 409.073 340.087 409.347 340C409.896 339.826 410.669 339.571 411.595 339.24C413.45 338.576 415.918 337.606 418.453 336.359C420.991 335.111 423.581 333.593 425.689 331.839C427.802 330.08 429.389 328.118 429.991 325.991L430.177 325.336ZM430.707 326.893C429.919 329.025 428.289 330.925 426.303 332.578C424.115 334.399 421.451 335.956 418.877 337.222C414.252 339.496 409.859 340.86 408.886 341.148C405.437 347.025 402.995 354.694 401.28 362.526C399.551 370.424 398.569 378.454 398.034 384.916C397.845 387.228 398.068 388.758 398.512 389.726C398.941 390.663 399.579 391.086 400.327 391.213C401.111 391.346 402.065 391.16 403.085 390.753C404.095 390.35 405.123 389.75 406.035 389.115C406.036 389.114 406.037 389.113 406.038 389.113L449.956 357.531C449.956 357.531 449.957 357.531 449.958 357.53C455.571 353.409 455.696 345.049 450.193 340.756L430.707 326.893Z" fill="#FFCF2D"/>
<path fill-rule="evenodd" clip-rule="evenodd" d="M432.793 327.439C433.048 327.512 433.196 327.777 433.124 328.033C432.331 330.828 430.47 333.345 428.114 335.529C425.755 337.716 422.873 339.593 419.99 341.105C417.106 342.617 414.207 343.771 411.803 344.507C410.602 344.875 409.517 345.14 408.616 345.293C407.73 345.443 406.972 345.493 406.447 345.394C406.187 345.345 406.015 345.094 406.064 344.833C406.113 344.572 406.364 344.4 406.625 344.449C406.973 344.515 407.59 344.491 408.456 344.345C409.306 344.201 410.349 343.947 411.522 343.587C413.869 342.869 416.713 341.737 419.544 340.253C422.377 338.768 425.182 336.936 427.461 334.824C429.743 332.709 431.472 330.336 432.2 327.77C432.272 327.515 432.538 327.367 432.793 327.439Z" fill="#FFCF2D"/>
<path d="M401.814 386.254C401.814 386.254 430.485 346.38 450.88 348.624C473.084 351.044 383.66 409.509 401.814 386.254Z" fill="#FFCF2D"/>
<path fill-rule="evenodd" clip-rule="evenodd" d="M400.059 385.349C400.059 385.35 400.059 385.35 399.669 385.068L400.059 385.35L400.053 385.357L400.048 385.364C398.48 387.375 398.354 388.884 398.726 389.816C399.102 390.756 400.042 391.267 400.967 391.207C401.232 391.19 401.46 391.391 401.477 391.656C401.494 391.921 401.294 392.15 401.029 392.167C399.729 392.251 398.379 391.536 397.835 390.173C397.287 388.802 397.608 386.933 399.285 384.779L399.286 384.778L399.303 384.755C399.317 384.735 399.339 384.705 399.368 384.666C399.426 384.587 399.511 384.47 399.624 384.318C399.849 384.014 400.181 383.569 400.611 383.005C401.471 381.875 402.723 380.265 404.292 378.34C407.428 374.492 411.833 369.383 416.906 364.345C421.977 359.31 427.729 354.332 433.558 350.758C439.376 347.19 445.337 344.98 450.805 345.582C452.577 345.772 453.817 346.602 454.494 347.751C455.164 348.887 455.248 350.28 454.826 351.549C454.742 351.8 454.47 351.937 454.219 351.853C453.967 351.769 453.831 351.496 453.915 351.244C454.261 350.205 454.178 349.106 453.667 348.239C453.163 347.384 452.21 346.7 450.701 346.538L450.7 346.538C445.546 345.97 439.811 348.051 434.06 351.578C428.319 355.098 422.627 360.019 417.583 365.028C412.541 370.035 408.158 375.117 405.036 378.948C403.475 380.863 402.23 382.465 401.375 383.587C400.948 384.149 400.618 384.59 400.395 384.891C400.284 385.041 400.2 385.156 400.143 385.233C400.115 385.272 400.094 385.301 400.08 385.321L400.064 385.343L400.059 385.349Z" fill="#FFCF2D"/>
<path d="M511.649 218.104C501.5 215.7 476.238 209.369 447.423 202.702C433.88 199.577 422.546 190.346 416.703 177.717L390.465 120.887L406.345 95.6935C411.228 87.9367 419.552 83.0005 428.693 82.4396L444.317 81.478C460.07 80.5164 472.717 90.3567 477.519 105.406L509.296 198.487C512.786 207.206 511.649 218.104 511.649 218.104Z" fill="white"/>
<path fill-rule="evenodd" clip-rule="evenodd" d="M444.346 81.9578C444.346 81.9578 444.346 81.9578 444.346 81.9578L428.722 82.9194C419.735 83.4709 411.551 88.3239 406.75 95.9497L391.009 120.923L417.137 177.515C422.918 190.009 434.132 199.142 447.53 202.234L447.53 202.234C467.438 206.84 485.658 211.287 498.363 214.389C503.727 215.698 508.108 216.767 511.217 217.507C511.24 217.2 511.268 216.772 511.292 216.243C511.343 215.096 511.376 213.475 511.3 211.584C511.149 207.795 510.565 202.953 508.849 198.666L508.845 198.655L477.064 105.561L477.062 105.556L477.061 105.552C472.316 90.6857 459.852 81.0114 444.346 81.9578ZM511.648 218.104L512.126 218.154L512.069 218.697L511.538 218.572C508.394 217.827 503.808 216.707 498.119 215.319C485.416 212.218 467.217 207.776 447.314 203.171C433.626 200.012 422.171 190.682 416.266 177.919L416.266 177.919L389.918 120.852L405.938 95.4371C410.903 87.5494 419.368 82.53 428.663 81.9596C428.663 81.9596 428.663 81.9596 428.663 81.9596L444.287 80.998C460.284 80.0215 473.112 90.0253 477.974 105.254C477.974 105.256 477.975 105.257 477.976 105.259L509.745 198.32C511.516 202.749 512.107 207.71 512.26 211.546C512.337 213.469 512.304 215.117 512.251 216.286C512.225 216.871 512.194 217.336 512.169 217.655C512.157 217.815 512.146 217.939 512.138 218.023C512.137 218.044 512.135 218.062 512.133 218.078C512.132 218.094 512.13 218.108 512.129 218.119L512.127 218.144L512.126 218.151L512.126 218.153L512.126 218.153C512.126 218.153 512.126 218.154 511.648 218.104Z" fill="#FE5244"/>
<path fill-rule="evenodd" clip-rule="evenodd" d="M403.874 124.335C403.874 124.335 403.874 124.335 404.279 124.077C404.684 123.818 404.684 123.818 404.684 123.818L404.684 123.818L404.685 123.819L404.688 123.825C404.692 123.83 404.697 123.839 404.705 123.85C404.72 123.873 404.743 123.908 404.775 123.954C404.838 124.047 404.934 124.186 405.063 124.364C405.323 124.72 405.716 125.235 406.249 125.864C407.313 127.123 408.932 128.835 411.14 130.637C415.555 134.242 422.325 138.209 431.742 139.644L431.597 140.594C421.98 139.129 415.055 135.074 410.533 131.383C408.273 129.537 406.613 127.782 405.516 126.486C404.967 125.838 404.559 125.304 404.287 124.93C404.151 124.743 404.049 124.596 403.98 124.495C403.946 124.445 403.92 124.405 403.902 124.378C403.894 124.365 403.887 124.355 403.882 124.347L403.876 124.339L403.875 124.336L403.874 124.335Z" fill="#FE5244"/>
<path d="M415.549 100.165C414.685 99.2354 413.164 99.4918 412.636 100.63C412.043 101.912 413.116 103.338 414.509 103.13C415.934 102.921 416.526 101.207 415.549 100.165Z" fill="#FFCF2D"/>
<path fill-rule="evenodd" clip-rule="evenodd" d="M412.2 100.427C412.87 98.9839 414.8 98.6551 415.9 99.8367C417.141 101.162 416.386 103.341 414.578 103.606C412.81 103.869 411.446 102.059 412.199 100.428L412.2 100.427L412.2 100.427ZM413.071 100.832C412.64 101.765 413.421 102.806 414.437 102.654L414.439 102.654L414.439 102.654C415.48 102.502 415.91 101.252 415.199 100.494L415.197 100.493L415.197 100.493C414.568 99.8161 413.458 100 413.071 100.832Z" fill="#FE5244"/>
<path d="M455.427 127.554C454.563 126.625 453.042 126.881 452.513 128.019C451.921 129.301 452.994 130.727 454.386 130.519C455.811 130.311 456.403 128.596 455.427 127.554Z" fill="#FFCF2D"/>
<path fill-rule="evenodd" clip-rule="evenodd" d="M452.078 127.816C452.748 126.373 454.678 126.044 455.778 127.226C457.019 128.551 456.264 130.73 454.456 130.994C452.688 131.258 451.324 129.447 452.078 127.817L452.078 127.816L452.078 127.816ZM452.949 128.221C452.518 129.154 453.299 130.195 454.315 130.043L454.317 130.043L454.317 130.043C455.358 129.891 455.788 128.641 455.077 127.883L455.075 127.882L455.075 127.882C454.446 127.205 453.336 127.389 452.949 128.221Z" fill="#FE5244"/>
<path d="M468.058 138.773C467.193 137.843 465.673 138.099 465.144 139.237C464.552 140.519 465.625 141.946 467.017 141.737C468.426 141.545 469.018 139.83 468.058 138.773Z" fill="#FFCF2D"/>
<path fill-rule="evenodd" clip-rule="evenodd" d="M464.708 139.035C465.378 137.591 467.309 137.262 468.409 138.445L468.413 138.449C469.621 139.78 468.892 141.964 467.085 142.213C465.317 142.475 463.955 140.665 464.708 139.035L464.708 139.035L464.708 139.035ZM465.58 139.439C465.149 140.373 465.93 141.414 466.946 141.262L466.952 141.261C467.959 141.123 468.413 139.882 467.704 139.098C467.074 138.424 465.966 138.608 465.58 139.439Z" fill="#FE5244"/>
<path d="M492.278 202.253C491.413 201.324 489.892 201.58 489.364 202.718C488.772 204 489.844 205.427 491.237 205.218C492.646 205.01 493.238 203.311 492.278 202.253Z" fill="#FFCF2D"/>
<path fill-rule="evenodd" clip-rule="evenodd" d="M488.929 202.516C489.599 201.072 491.53 200.744 492.629 201.926L492.633 201.93C493.847 203.266 493.104 205.428 491.308 205.694C489.539 205.958 488.175 204.147 488.928 202.517L488.929 202.516L488.929 202.516ZM489.8 202.921C489.369 203.854 490.15 204.895 491.166 204.743L491.167 204.743C492.187 204.592 492.629 203.358 491.924 202.579C491.295 201.905 490.186 202.09 489.8 202.921Z" fill="#FE5244"/>
<path d="M478.719 171.915C477.855 170.986 476.334 171.242 475.806 172.38C475.213 173.662 476.286 175.089 477.679 174.88C479.103 174.672 479.696 172.957 478.719 171.915Z" fill="#FFCF2D"/>
<path fill-rule="evenodd" clip-rule="evenodd" d="M475.37 172.177C476.04 170.734 477.97 170.405 479.07 171.587C480.311 172.912 479.556 175.091 477.748 175.356C475.98 175.619 474.616 173.809 475.369 172.178L475.37 172.177L475.37 172.177ZM476.241 172.582C475.81 173.515 476.591 174.556 477.607 174.404L477.609 174.404L477.609 174.404C478.65 174.252 479.08 173.002 478.369 172.244L478.367 172.243L478.367 172.243C477.738 171.566 476.628 171.75 476.241 172.582Z" fill="#FE5244"/>
<path d="M484.338 150.087C483.089 150.247 482.401 151.642 483.025 152.731C483.729 153.965 485.506 153.917 486.147 152.651C486.803 151.369 485.747 149.895 484.338 150.087Z" fill="#FFCF2D"/>
<path fill-rule="evenodd" clip-rule="evenodd" d="M486.575 152.87C485.762 154.475 483.503 154.537 482.608 152.97C481.815 151.585 482.687 149.816 484.275 149.61C486.065 149.368 487.408 151.241 486.575 152.87ZM485.72 152.432C486.198 151.497 485.429 150.423 484.403 150.564L484.399 150.564C483.491 150.681 482.987 151.699 483.442 152.492L483.442 152.493C483.956 153.393 485.25 153.36 485.719 152.434L485.72 152.432Z" fill="#FE5244"/>
<path d="M494.567 182.461C493.319 182.621 492.63 184.015 493.255 185.105C493.959 186.339 495.736 186.291 496.376 185.025C497.033 183.743 495.992 182.268 494.567 182.461Z" fill="#FFCF2D"/>
<path fill-rule="evenodd" clip-rule="evenodd" d="M496.804 185.243C495.991 186.849 493.732 186.911 492.838 185.344C492.044 183.958 492.916 182.189 494.505 181.984C496.313 181.741 497.636 183.617 496.804 185.243ZM495.949 184.806C496.429 183.868 495.671 182.797 494.631 182.937L494.628 182.938C493.72 183.054 493.217 184.073 493.671 184.866L493.671 184.867C494.185 185.767 495.48 185.733 495.948 184.808L495.949 184.806Z" fill="#FE5244"/>
<path d="M452.144 147.539C451.28 146.61 449.759 146.866 449.231 148.004C448.638 149.286 449.711 150.712 451.104 150.504C452.513 150.296 453.105 148.597 452.144 147.539Z" fill="#FFCF2D"/>
<path fill-rule="evenodd" clip-rule="evenodd" d="M448.796 147.801C449.466 146.358 451.397 146.029 452.496 147.212L452.5 147.216C453.714 148.552 452.972 150.714 451.175 150.98C449.406 151.244 448.042 149.433 448.796 147.802L448.796 147.801L448.796 147.801ZM449.667 148.206C449.236 149.14 450.017 150.181 451.033 150.029L451.034 150.029C452.054 149.878 452.496 148.644 451.792 147.865C451.162 147.191 450.053 147.375 449.667 148.206Z" fill="#FE5244"/>
<path d="M443.324 165.697C442.459 164.768 440.939 165.024 440.41 166.162C439.818 167.444 440.891 168.87 442.283 168.662C443.708 168.454 444.3 166.739 443.324 165.697Z" fill="#FFCF2D"/>
<path fill-rule="evenodd" clip-rule="evenodd" d="M439.975 165.959C440.646 164.516 442.576 164.187 443.676 165.368C444.917 166.693 444.162 168.872 442.354 169.137C440.585 169.401 439.222 167.59 439.975 165.96L439.975 165.959L439.975 165.959ZM440.847 166.364C440.416 167.297 441.197 168.338 442.213 168.186L442.215 168.186L442.215 168.186C443.255 168.034 443.685 166.784 442.974 166.026L442.973 166.024L442.973 166.024C442.344 165.348 441.233 165.532 440.847 166.364Z" fill="#FE5244"/>
<path d="M427.54 159.35C428.468 158.485 428.212 156.962 427.076 156.434C425.795 155.841 424.37 156.914 424.578 158.309C424.786 159.719 426.483 160.312 427.54 159.35Z" fill="#FFCF2D"/>
<path fill-rule="evenodd" clip-rule="evenodd" d="M424.103 158.379C423.839 156.608 425.648 155.243 427.277 155.997L427.278 155.998C428.72 156.669 429.048 158.601 427.867 159.702L427.863 159.706C426.528 160.921 424.369 160.178 424.103 158.379ZM426.873 156.87C425.941 156.439 424.901 157.22 425.053 158.238L425.053 158.238C425.204 159.259 426.436 159.702 427.214 158.997C427.888 158.366 427.703 157.256 426.873 156.87Z" fill="#FE5244"/>
<path d="M441.547 190.602C442.475 189.737 442.219 188.214 441.083 187.686C439.802 187.093 438.377 188.166 438.585 189.561C438.793 190.987 440.506 191.58 441.547 190.602Z" fill="#FFCF2D"/>
<path fill-rule="evenodd" clip-rule="evenodd" d="M438.11 189.631C437.847 187.86 439.656 186.495 441.284 187.249L441.285 187.25C442.727 187.92 443.055 189.853 441.875 190.954C440.551 192.196 438.375 191.441 438.11 189.631ZM440.881 188.122C439.948 187.691 438.908 188.472 439.06 189.49L439.061 189.491L439.061 189.491C439.213 190.533 440.461 190.964 441.218 190.252L441.22 190.251L441.22 190.251C441.895 189.621 441.712 188.509 440.881 188.122Z" fill="#FE5244"/>
<path d="M465.127 163.79C466.056 162.925 465.8 161.402 464.663 160.873C463.382 160.28 461.958 161.354 462.166 162.748C462.374 164.159 464.087 164.768 465.127 163.79Z" fill="#FFCF2D"/>
<path fill-rule="evenodd" clip-rule="evenodd" d="M461.691 162.819C461.427 161.048 463.236 159.682 464.865 160.437L464.866 160.437C466.308 161.108 466.636 163.04 465.456 164.141C464.129 165.387 461.955 164.607 461.691 162.819ZM464.462 161.309C463.529 160.878 462.489 161.66 462.641 162.677L462.641 162.678C462.794 163.709 464.045 164.147 464.799 163.439L464.801 163.438L464.801 163.438C465.476 162.808 465.293 161.696 464.462 161.309Z" fill="#FE5244"/>
<path d="M473.18 197.349C474.109 196.484 473.852 194.962 472.716 194.433C471.435 193.84 470.01 194.913 470.218 196.308C470.411 197.734 472.124 198.327 473.18 197.349Z" fill="#FFCF2D"/>
<path fill-rule="evenodd" clip-rule="evenodd" d="M469.744 196.375C469.482 194.606 471.29 193.242 472.918 193.996L472.919 193.996C474.361 194.667 474.689 196.6 473.508 197.701L473.507 197.702L473.507 197.702C472.175 198.935 469.992 198.198 469.744 196.375ZM472.514 194.869C471.582 194.437 470.542 195.219 470.694 196.236C470.694 196.239 470.695 196.241 470.695 196.243C470.833 197.271 472.074 197.718 472.854 196.997C473.529 196.367 473.345 195.256 472.514 194.869Z" fill="#FE5244"/>
<path d="M424.898 129.381C424.033 128.452 422.513 128.708 421.984 129.846C421.392 131.128 422.465 132.554 423.857 132.346C425.282 132.138 425.874 130.423 424.898 129.381Z" fill="#FFCF2D"/>
<path fill-rule="evenodd" clip-rule="evenodd" d="M421.55 129.643C422.22 128.2 424.15 127.871 425.25 129.053C426.491 130.377 425.736 132.556 423.928 132.821C422.16 133.085 420.796 131.274 421.549 129.644L421.55 129.643L421.55 129.643ZM422.421 130.048C421.99 130.981 422.771 132.022 423.787 131.87L423.789 131.87L423.789 131.87C424.83 131.718 425.259 130.468 424.548 129.71L424.547 129.708L424.547 129.708C423.918 129.032 422.807 129.216 422.421 130.048Z" fill="#FE5244"/>
<path d="M427.764 87.808C426.899 86.8784 425.378 87.1349 424.85 88.2728C424.258 89.5549 425.33 90.9812 426.723 90.7729C428.148 90.5645 428.74 88.8497 427.764 87.808Z" fill="#FFCF2D"/>
<path fill-rule="evenodd" clip-rule="evenodd" d="M424.415 88.0704C425.085 86.6272 427.015 86.2984 428.115 87.48C429.356 88.805 428.601 90.9839 426.793 91.2488C425.025 91.5128 423.661 89.7018 424.414 88.0713L424.415 88.0704L424.415 88.0704ZM425.286 88.4753C424.855 89.4086 425.636 90.4497 426.652 90.2977L426.654 90.2975L426.654 90.2975C427.694 90.1453 428.124 88.8957 427.413 88.1373L427.412 88.1359L427.412 88.1359C426.783 87.4594 425.672 87.6434 425.286 88.4753Z" fill="#FE5244"/>
<path d="M455.427 87.808C454.563 86.8784 453.042 87.1349 452.513 88.2728C451.921 89.5549 452.994 90.9812 454.386 90.7729C455.811 90.5645 456.403 88.8497 455.427 87.808Z" fill="#FFCF2D"/>
<path fill-rule="evenodd" clip-rule="evenodd" d="M452.078 88.0704C452.748 86.6272 454.678 86.2984 455.778 87.48C457.019 88.805 456.264 90.9839 454.456 91.2488C452.688 91.5128 451.324 89.7018 452.078 88.0713L452.078 88.0704L452.078 88.0704ZM452.949 88.4753C452.518 89.4086 453.299 90.4497 454.315 90.2977L454.317 90.2975L454.317 90.2975C455.358 90.1453 455.788 88.8957 455.077 88.1373L455.075 88.1359L455.075 88.1359C454.446 87.4594 453.336 87.6434 452.949 88.4753Z" fill="#FE5244"/>
<path d="M455.474 105.758C454.306 106.223 453.97 107.729 454.85 108.643C455.827 109.652 457.539 109.188 457.86 107.809C458.18 106.415 456.803 105.229 455.474 105.758Z" fill="#FFCF2D"/>
<path fill-rule="evenodd" clip-rule="evenodd" d="M455.297 105.311C456.987 104.639 458.734 106.146 458.328 107.917L458.328 107.918C457.921 109.671 455.744 110.258 454.505 108.977L454.505 108.977C453.385 107.815 453.814 105.901 455.297 105.311M457.392 107.701C457.625 106.684 456.62 105.82 455.652 106.205L455.652 106.205C454.798 106.545 454.555 107.644 455.196 108.309C455.91 109.047 457.158 108.705 457.392 107.701Z" fill="#FE5244"/>
<path d="M439.754 95.5328C438.537 95.8854 438.073 97.3438 438.841 98.3375C439.722 99.4433 441.466 99.1388 441.915 97.8086C442.379 96.4464 441.114 95.1322 439.754 95.5328Z" fill="#FFCF2D"/>
<path fill-rule="evenodd" clip-rule="evenodd" d="M439.62 95.0714C441.355 94.5612 442.958 96.2345 442.37 97.9632C441.799 99.6569 439.581 100.038 438.466 98.6373C438.465 98.6355 438.463 98.6337 438.462 98.6319C437.488 97.3723 438.075 95.5196 439.62 95.0714ZM441.461 97.6535C441.8 96.6583 440.875 95.7041 439.89 95.9942L439.888 95.9948L439.888 95.9948C439 96.2519 438.66 97.3132 439.219 98.0406C439.866 98.8485 441.135 98.62 441.46 97.655L441.461 97.6535L441.461 97.6535Z" fill="#FE5244"/>
<path d="M437.433 139.927C436.184 140.071 435.48 141.449 436.088 142.555C436.777 143.789 438.554 143.773 439.21 142.523C439.883 141.257 438.858 139.766 437.433 139.927Z" fill="#FFCF2D"/>
<path fill-rule="evenodd" clip-rule="evenodd" d="M439.634 142.748C440.49 141.135 439.181 139.246 437.379 139.449L437.379 139.449L437.378 139.449C435.786 139.633 434.896 141.385 435.667 142.787L435.669 142.789C436.541 144.353 438.798 144.338 439.634 142.748ZM437.487 140.404C438.533 140.287 439.273 141.378 438.785 142.297L438.785 142.297L438.784 142.299C438.307 143.208 437.013 143.225 436.508 142.322C436.064 141.513 436.582 140.509 437.487 140.404Z" fill="#FE5244"/>
<path d="M423.714 173.31C422.465 173.454 421.761 174.832 422.369 175.938C423.057 177.172 424.834 177.156 425.491 175.906C426.163 174.64 425.139 173.149 423.714 173.31Z" fill="#FFCF2D"/>
<path fill-rule="evenodd" clip-rule="evenodd" d="M425.915 176.131C426.771 174.518 425.462 172.629 423.66 172.832L423.66 172.832L423.659 172.832C422.067 173.016 421.177 174.768 421.948 176.17L421.95 176.172C422.822 177.736 425.079 177.721 425.915 176.131ZM423.768 173.787C424.815 173.67 425.555 174.761 425.067 175.68L425.067 175.68L425.066 175.682C424.589 176.591 423.294 176.608 422.789 175.705C422.345 174.896 422.863 173.892 423.768 173.787Z" fill="#FE5244"/>
<path d="M428.324 108.771C427.107 109.124 426.643 110.582 427.411 111.576C428.292 112.682 430.037 112.377 430.485 111.047C430.949 109.701 429.701 108.386 428.324 108.771Z" fill="#FFCF2D"/>
<path fill-rule="evenodd" clip-rule="evenodd" d="M430.94 111.202C431.531 109.484 429.938 107.821 428.195 108.308L428.191 108.309C426.646 108.757 426.058 110.61 427.032 111.87C427.033 111.872 427.035 111.874 427.036 111.875C428.151 113.276 430.368 112.895 430.94 111.202ZM428.456 109.234C429.465 108.953 430.367 109.917 430.031 110.89L430.03 110.893C429.705 111.858 428.436 112.087 427.789 111.279C427.23 110.552 427.57 109.492 428.456 109.234Z" fill="#FE5244"/>
<path d="M441.579 117.746C440.362 118.099 439.898 119.557 440.666 120.551C441.547 121.656 443.292 121.352 443.74 120.022C444.204 118.659 442.956 117.345 441.579 117.746Z" fill="#FFCF2D"/>
<path fill-rule="evenodd" clip-rule="evenodd" d="M441.446 117.284C443.198 116.774 444.783 118.449 444.195 120.176C443.624 121.87 441.406 122.25 440.291 120.85C440.29 120.848 440.289 120.846 440.287 120.845C439.313 119.585 439.901 117.732 441.446 117.284ZM443.286 119.866C443.626 118.869 442.714 117.916 441.713 118.207L441.713 118.207C440.826 118.465 440.485 119.526 441.045 120.253C441.691 121.061 442.96 120.833 443.286 119.868L443.286 119.866L443.286 119.866Z" fill="#FE5244"/>
<path d="M412.877 117.361C413.678 116.384 413.245 114.909 412.029 114.54C410.684 114.124 409.403 115.374 409.803 116.72C410.204 118.098 411.965 118.467 412.877 117.361Z" fill="#FFCF2D"/>
<path fill-rule="evenodd" clip-rule="evenodd" d="M412.168 114.081C413.717 114.551 414.261 116.428 413.247 117.666L413.246 117.667L413.246 117.667C412.087 119.072 409.849 118.601 409.342 116.856C408.831 115.134 410.466 113.554 412.168 114.081ZM411.885 115C410.9 114.694 409.974 115.613 410.263 116.583L410.263 116.586C410.557 117.596 411.84 117.861 412.505 117.056C413.091 116.338 412.772 115.268 411.888 115.001L411.885 115Z" fill="#FE5244"/>
<path d="M473.564 117.409C474.365 116.432 473.932 114.957 472.716 114.589C471.371 114.172 470.09 115.422 470.49 116.768C470.875 118.146 472.652 118.515 473.564 117.409Z" fill="#FFCF2D"/>
<path fill-rule="evenodd" clip-rule="evenodd" d="M472.857 114.129C474.406 114.599 474.95 116.476 473.936 117.714L473.935 117.715L473.935 117.715C472.78 119.115 470.522 118.656 470.03 116.901C469.522 115.181 471.155 113.603 472.857 114.129ZM472.574 115.048C471.589 114.742 470.663 115.661 470.952 116.631C470.952 116.634 470.953 116.636 470.954 116.639C471.232 117.637 472.525 117.914 473.194 117.104C473.78 116.387 473.461 115.316 472.577 115.049L472.574 115.048Z" fill="#FE5244"/>
<path d="M458.164 182.381C458.964 181.403 458.532 179.929 457.315 179.56C455.97 179.143 454.69 180.393 455.09 181.74C455.474 183.102 457.251 183.47 458.164 182.381Z" fill="#FFCF2D"/>
<path fill-rule="evenodd" clip-rule="evenodd" d="M457.456 179.1C459.005 179.571 459.549 181.448 458.535 182.686L458.532 182.69C457.378 184.068 455.122 183.613 454.629 181.874C454.12 180.153 455.754 178.574 457.456 179.1ZM457.173 180.019C456.187 179.714 455.262 180.633 455.55 181.603L455.552 181.609C455.829 182.591 457.123 182.872 457.794 182.074C458.379 181.357 458.059 180.288 457.176 180.02L457.173 180.019Z" fill="#FE5244"/>
<path d="M445.389 80.9481C445.037 80.9641 444.685 80.9801 444.317 80.9962L428.692 81.9578C424.706 82.1981 420.896 83.2719 417.438 85.0509L412.636 70.6591L434.039 54.9531L445.389 80.9481Z" fill="#E57281"/>
<path d="M417.374 84.8279C421.825 82.8085 425.379 79.2186 427.396 74.7632L435.176 57.5348L434.039 54.9385L412.636 70.6444L417.374 84.8279Z" fill="#9A3B82"/>
<path d="M435.415 56.397C435.415 57.8874 434.807 59.2337 433.831 60.2113C432.854 61.1889 431.509 61.7979 430.02 61.7979H425.314C423.457 69.0258 416.269 73.978 408.537 72.6158L404.999 71.9907C401.125 71.3016 398.484 67.6796 399.028 63.7852L403.174 42.9988C403.895 38.5595 408.457 35.851 412.699 37.3735L419.567 40.1301C423.281 41.4122 425.778 44.906 425.778 48.8325V50.8358L430.02 50.9961C432.998 50.9961 435.415 53.416 435.415 56.397Z" fill="#E57281"/>
<path fill-rule="evenodd" clip-rule="evenodd" d="M431.173 54.1053C429.329 54.1053 427.843 55.5926 427.843 57.4388C427.843 57.6601 427.664 57.8394 427.443 57.8394C427.222 57.8394 427.043 57.6601 427.043 57.4388C427.043 55.1501 428.887 53.304 431.173 53.304C431.394 53.304 431.573 53.4833 431.573 53.7046C431.573 53.9259 431.394 54.1053 431.173 54.1053Z" fill="#9A3B82"/>
<path fill-rule="evenodd" clip-rule="evenodd" d="M405.079 47.3743C405.079 47.153 405.259 46.9736 405.48 46.9736L405.48 47.3743C405.48 46.9736 405.48 46.9736 405.48 46.9736L405.48 46.9736L405.482 46.9736L405.485 46.9737L405.495 46.9738C405.504 46.9739 405.516 46.9742 405.53 46.9746C405.56 46.9755 405.602 46.9773 405.655 46.9808C405.761 46.9877 405.912 47.0012 406.099 47.028C406.473 47.0814 406.995 47.1876 407.594 47.3991C408.794 47.8227 410.306 48.6696 411.563 50.356C411.696 50.5333 411.659 50.7844 411.482 50.9167C411.305 51.0491 411.054 51.0126 410.922 50.8352C409.778 49.3003 408.409 48.5366 407.328 48.1548C406.786 47.9636 406.317 47.8685 405.986 47.8213C405.82 47.7977 405.69 47.7861 405.603 47.7804C405.559 47.7776 405.526 47.7762 405.505 47.7755C405.495 47.7752 405.488 47.7751 405.483 47.775L405.479 47.775C405.479 47.775 405.479 47.775 405.479 47.775L405.479 47.775" fill="#9A3B82"/>
<path d="M407.714 53.3725C407.883 52.4407 407.668 51.6212 407.233 51.542C406.798 51.4629 406.308 52.1542 406.139 53.086C405.97 54.0178 406.185 54.8373 406.62 54.9165C407.055 54.9956 407.545 54.3044 407.714 53.3725Z" fill="#9A3B82"/>
<path d="M430.021 50.9958C432.999 50.9958 435.416 53.4158 435.416 56.3968C435.416 56.4128 435.416 56.4448 435.416 56.4769C437.817 52.7748 443.708 43.3512 443.708 40.1619C443.708 35.8829 438.378 31.6038 432.855 33.559C433.223 33.2866 433.607 32.9981 434.007 32.6936C436.136 31.0269 437.257 29.7768 437.433 28.8793C437.497 28.5588 437.449 28.2703 437.289 28.0459C436.649 27.1324 435.944 26.7318 435.192 26.86C434.087 27.0363 432.951 28.3985 431.814 30.8986C431.302 32.0365 430.902 33.1584 430.677 33.8475C430.229 31.1711 428.068 22.3085 418.783 23.6707C415.581 24.1355 414.077 25.4657 413.66 26.9241C411.003 24.8406 407.449 23.2059 404.504 24.7605C399.413 27.4369 400.037 31.8282 402.983 34.9373C400.197 34.8892 398.244 35.7066 398.244 38.0625C398.244 40.2261 400.469 41.2678 403.527 41.6845C406.585 42.1011 410.507 41.8768 413.901 41.4921C416.318 41.2197 418.495 40.8831 419.888 40.6427C418.959 42.5499 418.591 44.1846 418.671 45.5629C418.815 48.4156 420.88 50.0984 423.794 50.6913C424.418 50.8195 425.09 50.8997 425.779 50.9317L430.021 50.9958ZM435.288 27.501C435.336 27.485 435.384 27.485 435.448 27.485C435.896 27.485 436.328 27.8055 436.761 28.4145C436.793 28.4786 436.841 28.5748 436.809 28.7511C436.553 30.0492 433.271 32.5173 431.366 33.8155C432.118 31.6038 433.703 27.7735 435.288 27.501Z" fill="#FFCF2D"/>
<path d="M385.645 173.759H283.19C280.661 173.759 279.14 170.97 280.485 168.839L294.124 147.395C295.901 144.607 298.959 142.924 302.257 142.924H371.606L385.645 173.759Z" fill="#E57281"/>
<path d="M304.514 142.94L312.678 129.478C313.158 128.676 314.039 128.179 314.967 128.179C317.065 128.179 318.345 130.471 317.257 132.266L310.773 142.94H304.514Z" fill="#FE5244"/>
<path d="M385.645 173.759H362.609C362.561 173.711 362.497 173.647 362.449 173.599C356.846 167.829 354.46 159.079 357.614 150.649L360.896 142.924H371.606L385.645 173.759Z" fill="#9A3B82"/>
<path d="M297.662 159.367H284.823C283.958 159.367 283.158 159.832 282.726 160.585L281.365 162.957C280.453 164.56 281.605 166.563 283.462 166.563H293.788C295.581 166.563 297.246 165.634 298.19 164.095L299.295 162.284C300.063 161.002 299.151 159.367 297.662 159.367Z" fill="#E57281"/>
<path d="M294.349 166.563H281.51C280.646 166.563 279.845 167.028 279.413 167.781L278.052 170.153C277.14 171.755 278.293 173.759 280.15 173.759H290.475C292.268 173.759 293.933 172.829 294.878 171.291L295.982 169.48C296.767 168.197 295.838 166.563 294.349 166.563Z" fill="#E57281"/>
<path d="M301.329 152.075H288.49C287.625 152.075 286.825 152.54 286.393 153.293L285.032 155.665C284.119 157.268 285.272 159.271 287.129 159.271H297.455C299.248 159.271 300.912 158.342 301.857 156.803L302.961 154.992C303.746 153.71 302.817 152.075 301.329 152.075Z" fill="#E57281"/>
<path fill-rule="evenodd" clip-rule="evenodd" d="M282.38 160.385C282.883 159.508 283.816 158.966 284.824 158.966H297.663C299.468 158.966 300.565 160.945 299.639 162.49L299.638 162.491L298.533 164.304L298.532 164.305C297.515 165.962 295.721 166.964 293.789 166.964H283.463C281.298 166.964 279.954 164.628 281.018 162.758L281.019 162.757L282.38 160.385ZM283.074 160.785C283.074 160.785 283.074 160.785 283.074 160.785L281.714 163.155C281.714 163.155 281.714 163.156 281.714 163.156C280.953 164.492 281.914 166.162 283.463 166.162H293.789C295.442 166.162 296.978 165.305 297.85 163.885C297.85 163.885 297.85 163.885 297.85 163.885L298.952 162.078C298.953 162.077 298.953 162.077 298.953 162.076C299.563 161.057 298.835 159.768 297.663 159.768H284.824C284.103 159.768 283.435 160.155 283.074 160.785Z" fill="#9A3B82"/>
<path fill-rule="evenodd" clip-rule="evenodd" d="M279.065 167.581C279.569 166.704 280.501 166.162 281.51 166.162H294.348C296.147 166.162 297.272 168.137 296.323 169.689L295.218 171.499L295.218 171.5C294.2 173.157 292.406 174.159 290.474 174.159H280.149C277.984 174.159 276.64 171.823 277.704 169.954L277.705 169.953L279.065 167.581ZM279.759 167.98C279.759 167.98 279.759 167.98 279.759 167.98L278.399 170.351C278.399 170.351 278.399 170.351 278.399 170.352C277.639 171.688 278.6 173.358 280.149 173.358H290.474C292.128 173.358 293.664 172.501 294.535 171.081C294.536 171.081 294.536 171.081 294.536 171.081L295.64 169.27C296.26 168.257 295.527 166.963 294.348 166.963H281.51C280.789 166.963 280.121 167.351 279.759 167.98Z" fill="#9A3B82"/>
<path fill-rule="evenodd" clip-rule="evenodd" d="M286.045 153.093C286.548 152.216 287.481 151.674 288.489 151.674H301.328C303.127 151.674 304.252 153.65 303.302 155.201L302.198 157.012L302.197 157.013C301.18 158.67 299.386 159.672 297.454 159.672H287.129C284.964 159.672 283.62 157.336 284.684 155.466L284.684 155.465L286.045 153.093ZM286.739 153.493C286.739 153.493 286.739 153.493 286.739 153.493L285.379 155.863C285.379 155.863 285.379 155.864 285.379 155.864C284.619 157.2 285.58 158.87 287.129 158.87H297.454C299.108 158.87 300.643 158.013 301.515 156.593C301.515 156.593 301.515 156.593 301.516 156.593L302.62 154.783C303.24 153.77 302.507 152.476 301.328 152.476H288.489C287.769 152.476 287.1 152.863 286.739 153.493Z" fill="#9A3B82"/>
<path d="M319.915 162.796C316.056 162.796 312.343 161.402 309.429 158.854L304.562 154.591H300.08L298.927 155.825C296.862 158.037 294.317 159.303 291.291 159.303H289.146C288.026 159.303 287.337 158.053 287.946 157.107L293.34 148.645H319.931V162.796H319.915Z" fill="#E57281"/>
<path fill-rule="evenodd" clip-rule="evenodd" d="M293.555 148.308C293.742 148.427 293.796 148.674 293.677 148.861L288.283 157.323L288.282 157.324C287.847 158.001 288.339 158.902 289.146 158.902H291.291C294.192 158.902 296.635 157.709 298.634 155.553L298.635 155.552L299.906 154.191H304.712L309.692 158.552C309.692 158.553 309.692 158.553 309.692 158.553M304.412 154.992L309.165 159.156L309.165 159.156C312.136 161.752 315.959 163.197 319.914 163.197C320.135 163.197 320.314 163.018 320.314 162.797C320.314 162.575 320.135 162.396 319.914 162.396C316.154 162.396 312.517 161.021 309.692 158.553M304.412 154.992H300.253L299.22 156.098C299.22 156.098 299.22 156.098 299.22 156.098C297.089 158.397 294.441 159.704 291.291 159.704H289.146C287.712 159.704 286.828 158.106 287.608 156.891C287.608 156.891 287.609 156.891 287.609 156.89L293.003 148.43C293.122 148.243 293.369 148.189 293.555 148.308" fill="#9A3B82"/>
<path d="M428.004 143.789L403.559 171.13C398.42 176.884 391.072 180.169 383.356 180.169C368.116 180.169 357.567 164.944 362.913 150.648L391.953 82.3434L382.14 76.8463C380.747 75.7565 380.075 73.9776 380.379 72.2467L382.044 61.0122C382.556 58.512 385.101 56.5568 387.583 55.9798L399.077 53.3835C400.053 53.1592 400.95 53.9926 400.79 54.9702L399.125 63.6405C398.468 67.8715 401.318 71.5255 405.544 72.2467C409.002 72.8397 411.435 76.3174 411.115 79.8112L403.287 128.692C403.271 128.724 411.291 141.241 428.004 143.789Z" fill="#E57281"/>
<path fill-rule="evenodd" clip-rule="evenodd" d="M409.319 91.0348C409.538 91.0684 409.688 91.273 409.654 91.4917L400.209 152.889C400.175 153.108 399.971 153.258 399.752 153.224C399.534 153.191 399.384 152.986 399.418 152.767L408.863 91.3698C408.897 91.1511 409.101 91.0011 409.319 91.0348Z" fill="#9A3B82"/>
<path fill-rule="evenodd" clip-rule="evenodd" d="M389.692 61.4297C389.913 61.4368 390.087 61.6219 390.079 61.843L389.951 65.8165C389.951 65.8166 389.951 65.8168 389.951 65.817C389.908 67.2893 390.783 68.5436 391.984 68.8929L406.68 71.8706C406.896 71.9145 407.036 72.1259 406.993 72.3428C406.949 72.5597 406.738 72.6999 406.521 72.656L391.794 69.6721L391.779 69.6678C390.169 69.21 389.099 67.5839 389.151 65.7929L389.151 65.7918L389.279 61.8172C389.287 61.596 389.471 61.4225 389.692 61.4297Z" fill="#9A3B82"/>
<path fill-rule="evenodd" clip-rule="evenodd" d="M398.905 53.3626C399.984 53.1042 400.978 54.0347 400.784 55.1364L399.264 63.8313C398.754 67.5055 401.245 70.9236 404.901 71.5787L416.659 73.1481C416.878 73.1774 417.032 73.3789 417.003 73.5982C416.974 73.8175 416.772 73.9716 416.553 73.9424L404.778 72.3707L404.77 72.3691C400.685 71.6426 397.898 67.8229 398.472 63.7136L398.473 63.7068L399.995 54.9971C400.089 54.4645 399.611 54.017 399.09 54.1421L399.089 54.1424L387.081 56.9474C386.866 56.9976 386.651 56.8637 386.601 56.6482C386.55 56.4327 386.684 56.2173 386.899 56.167L398.903 53.363C398.904 53.3628 398.904 53.3627 398.905 53.3626Z" fill="#9A3B82"/>
<path fill-rule="evenodd" clip-rule="evenodd" d="M442.289 128.629L410.464 164.08L409.75 163.437L441.575 127.986L442.289 128.629Z" fill="#FE5244"/>
<path fill-rule="evenodd" clip-rule="evenodd" d="M391.889 82.3597C391.889 82.1384 392.068 81.959 392.289 81.959H397.908C398.129 81.959 398.308 82.1384 398.308 82.3597C398.308 82.5809 398.129 82.7603 397.908 82.7603H392.289C392.068 82.7603 391.889 82.5809 391.889 82.3597Z" fill="#9A3B82"/>
<path fill-rule="evenodd" clip-rule="evenodd" d="M394.822 55.1881C395.396 55.5789 395.821 56.2213 395.811 57.0267L395.699 65.3904C395.698 66.4289 394.955 67.3429 393.922 67.3429H392.161C390.536 67.3429 389.296 65.8675 389.296 64.1696V62.8875C389.296 62.6662 389.475 62.4868 389.696 62.4868C389.917 62.4868 390.096 62.6662 390.096 62.8875V64.1696C390.096 65.5167 391.065 66.5415 392.161 66.5415H393.922C394.425 66.5415 394.899 66.0789 394.899 65.3876V65.3849L395.011 57.0169C395.011 57.0168 395.011 57.0167 395.011 57.0167C395.017 56.5241 394.762 56.1168 394.372 55.8506C393.975 55.5801 393.465 55.4769 393.024 55.5841C392.809 55.6363 392.593 55.5044 392.541 55.2893C392.489 55.0743 392.621 54.8577 392.835 54.8054C393.515 54.6402 394.254 54.8015 394.822 55.1881Z" fill="#9A3B82"/>
<path fill-rule="evenodd" clip-rule="evenodd" d="M395.41 62.4871C395.631 62.4871 395.811 62.6664 395.811 62.8877V64.1698C395.811 65.5169 396.779 66.5418 397.876 66.5418H398.996C399.217 66.5418 399.396 66.7211 399.396 66.9424C399.396 67.1637 399.217 67.3431 398.996 67.3431H397.876C396.251 67.3431 395.01 65.8678 395.01 64.1698V62.8877C395.01 62.6664 395.189 62.4871 395.41 62.4871Z" fill="#9A3B82"/>
<path fill-rule="evenodd" clip-rule="evenodd" d="M519.832 419.919L501.246 265.071L502.2 264.956L520.786 419.804L519.832 419.919Z" fill="#66B0F0"/>
<path fill-rule="evenodd" clip-rule="evenodd" d="M402.105 419.804L420.691 264.956L421.645 265.071L403.059 419.919L402.105 419.804Z" fill="#66B0F0"/>
<path fill-rule="evenodd" clip-rule="evenodd" d="M513.921 367.167H408.953V366.205H513.921V367.167Z" fill="#66B0F0"/>
<path d="M410.458 265.495H511.472C512.817 265.495 513.905 264.405 513.905 263.058V259.757C513.905 258.411 512.817 257.321 511.472 257.321H410.458C409.113 257.321 408.025 258.411 408.025 259.757V263.058C408.025 264.405 409.113 265.495 410.458 265.495Z" fill="white"/>
<path fill-rule="evenodd" clip-rule="evenodd" d="M407.545 259.757C407.545 258.145 408.849 256.84 410.459 256.84H511.473C513.082 256.84 514.386 258.145 514.386 259.757V263.058C514.386 264.67 513.082 265.975 511.473 265.975H410.459C408.849 265.975 407.545 264.67 407.545 263.058V259.757ZM410.459 257.802C409.379 257.802 408.506 258.676 408.506 259.757V263.058C408.506 264.139 409.379 265.014 410.459 265.014H511.473C512.552 265.014 513.426 264.139 513.426 263.058V259.757C513.426 258.676 512.552 257.802 511.473 257.802H410.459Z" fill="#FFCF2D"/>
<path d="M242.369 148.308L226.905 180.169H180.176L198.954 148.308H242.369Z" fill="white"/>
<path fill-rule="evenodd" clip-rule="evenodd" d="M198.726 147.907H243.009L227.156 180.569H179.476L198.726 147.907ZM199.183 148.709L180.877 179.768H226.655L241.73 148.709H199.183Z" fill="#3FB1B5"/>
<path fill-rule="evenodd" clip-rule="evenodd" d="M213.724 154.541C214.08 154.769 214.434 154.995 214.787 155.21C215.358 155.558 216.035 155.668 216.816 155.607C217.602 155.546 218.468 155.314 219.393 155C219.97 154.805 220.551 154.585 221.142 154.362C221.505 154.224 221.872 154.085 222.245 153.95C223.209 153.598 224.19 153.277 225.137 153.107C227.69 152.637 229.524 153.312 230.721 154.122C231.316 154.525 231.749 154.957 232.034 155.291C232.177 155.458 232.283 155.601 232.355 155.704C232.391 155.755 232.419 155.797 232.437 155.827C232.447 155.842 232.454 155.854 232.46 155.862C232.462 155.867 232.464 155.87 232.466 155.873L232.468 155.876L232.469 155.878L232.469 155.878C232.469 155.878 232.469 155.879 232.124 156.081C231.779 156.283 231.779 156.284 231.779 156.284L231.776 156.28C231.775 156.278 231.774 156.276 231.772 156.273C231.77 156.269 231.767 156.264 231.763 156.258C231.749 156.237 231.728 156.205 231.699 156.163C231.641 156.079 231.55 155.957 231.426 155.812C231.178 155.522 230.797 155.141 230.273 154.786C229.233 154.082 227.609 153.467 225.281 153.895L225.279 153.895C224.402 154.053 223.473 154.355 222.518 154.703C222.166 154.831 221.808 154.966 221.447 155.103C220.844 155.331 220.236 155.561 219.65 155.759C218.705 156.079 217.764 156.337 216.878 156.406C215.988 156.476 215.129 156.356 214.371 155.894C213.982 155.658 213.607 155.418 213.239 155.182C212.312 154.589 211.43 154.024 210.487 153.614C209.2 153.055 207.847 152.811 206.234 153.262C204.55 153.732 203.082 154.419 202.033 154.991C201.509 155.276 201.092 155.531 200.807 155.715C200.664 155.806 200.554 155.88 200.481 155.93C200.444 155.955 200.417 155.974 200.399 155.987C200.39 155.993 200.383 155.998 200.379 156.001L200.374 156.004L200.374 156.005C200.374 156.005 200.374 156.005 200.139 155.68C199.904 155.356 199.905 155.356 199.905 155.356L199.905 155.355L199.907 155.354L199.914 155.349C199.919 155.345 199.928 155.339 199.938 155.332C199.959 155.317 199.989 155.296 200.029 155.269C200.108 155.214 200.225 155.136 200.374 155.04C200.674 154.848 201.108 154.582 201.651 154.287C202.735 153.696 204.26 152.981 206.019 152.49C207.847 151.979 209.391 152.264 210.806 152.879C211.812 153.316 212.777 153.934 213.724 154.541Z" fill="#3FB1B5"/>
<path fill-rule="evenodd" clip-rule="evenodd" d="M212.124 159.509C212.48 159.737 212.834 159.963 213.186 160.178C213.757 160.526 214.434 160.636 215.216 160.576C216.002 160.514 216.868 160.282 217.792 159.968C218.369 159.773 218.95 159.553 219.541 159.33C219.904 159.192 220.271 159.053 220.644 158.918C221.608 158.566 222.589 158.245 223.536 158.075C226.09 157.605 227.924 158.28 229.121 159.09C229.715 159.493 230.148 159.925 230.433 160.259C230.576 160.426 230.683 160.569 230.755 160.672C230.791 160.723 230.818 160.765 230.837 160.795C230.846 160.81 230.854 160.822 230.859 160.83C230.862 160.835 230.864 160.838 230.865 160.841L230.868 160.845L230.868 160.846L230.869 160.846C230.869 160.847 230.869 160.847 230.523 161.049C230.178 161.251 230.178 161.252 230.178 161.252L230.176 161.248C230.175 161.246 230.173 161.244 230.172 161.241C230.169 161.237 230.166 161.232 230.162 161.226C230.149 161.205 230.128 161.173 230.098 161.131C230.04 161.047 229.95 160.925 229.826 160.78C229.577 160.49 229.196 160.109 228.672 159.754C227.632 159.05 226.009 158.435 223.68 158.863L223.679 158.863C222.801 159.021 221.873 159.323 220.918 159.671C220.566 159.799 220.207 159.934 219.847 160.071C219.244 160.299 218.636 160.529 218.049 160.727C217.105 161.047 216.164 161.305 215.278 161.374C214.388 161.444 213.528 161.324 212.77 160.863C212.381 160.626 212.007 160.386 211.639 160.15C210.712 159.557 209.83 158.992 208.887 158.582C207.6 158.023 206.246 157.779 204.633 158.23C202.95 158.7 201.481 159.387 200.433 159.959C199.909 160.244 199.491 160.499 199.206 160.683C199.063 160.774 198.954 160.848 198.88 160.898C198.844 160.923 198.816 160.942 198.798 160.955C198.789 160.961 198.782 160.966 198.778 160.969L198.774 160.972L198.773 160.973C198.773 160.973 198.773 160.973 198.538 160.648C198.304 160.324 198.304 160.324 198.304 160.324L198.305 160.323L198.307 160.322L198.313 160.317C198.319 160.313 198.327 160.307 198.337 160.3C198.358 160.285 198.389 160.264 198.428 160.237C198.508 160.182 198.624 160.104 198.774 160.008C199.073 159.816 199.507 159.55 200.05 159.255C201.134 158.664 202.66 157.949 204.418 157.458C206.247 156.947 207.791 157.232 209.205 157.847C210.211 158.284 211.176 158.902 212.124 159.509Z" fill="#3FB1B5"/>
<path d="M259.947 291.296C259.947 295.575 248.084 299.037 233.228 299.037C218.372 299.037 206.862 295.575 206.862 291.296C206.862 287.017 218.372 283.555 233.228 283.555C248.084 283.555 259.947 287.033 259.947 291.296Z" fill="#FE5244"/>
<path d="M253.111 286.088V341.379L251.43 333.398C249.621 324.808 242.049 318.669 233.276 318.669C230.635 318.669 228.042 319.23 225.688 320.288C225.608 320.32 225.528 320.368 225.432 320.4L219.269 297.899L215.843 285.382C220.534 284.245 226.601 283.555 233.228 283.555C241.105 283.555 248.196 284.533 253.111 286.088Z" fill="#A0505A"/>
<path d="M253.111 286.086V296.504C248.196 298.058 241.105 299.036 233.228 299.036C228.122 299.036 223.351 298.619 219.269 297.914L215.843 285.397C220.534 284.259 226.601 283.57 233.228 283.57C241.105 283.554 248.196 284.532 253.111 286.086Z" fill="#73325A"/>
<path d="M251.925 339.76C252.358 339.888 256.424 341.026 260.026 341.026C261.979 341.026 263.788 340.69 264.812 339.664C265.693 338.783 265.901 337.501 265.437 335.882C265.021 334.439 264.22 333.542 263.051 333.221C260.906 332.645 257.929 334.247 255.575 335.93C259.241 331.475 262.859 325.817 261.515 322.115C261.034 320.801 259.946 319.919 258.585 319.759C257.448 319.631 256.392 320.032 255.896 320.785C253.59 324.295 251.701 338.703 251.621 339.312L251.925 339.76ZM256.568 321.234C256.856 320.801 257.464 320.545 258.169 320.545C258.281 320.545 258.393 320.545 258.505 320.561C259.017 320.625 260.25 320.913 260.778 322.388C261.13 323.365 261.259 325.16 259.834 328.173C258.489 331.026 256.056 334.375 252.598 338.174C253.11 334.52 254.743 324.006 256.568 321.234ZM264.252 339.103C263.196 340.161 260.794 340.481 257.288 340.033C255.447 339.792 253.734 339.408 252.822 339.167C253.51 338.558 254.791 337.452 256.28 336.427C259.129 334.456 261.403 333.606 262.859 334.007C263.74 334.247 264.332 334.936 264.684 336.106C265.069 337.452 264.924 338.43 264.252 339.103Z" fill="#FFCF2D"/>
<path d="M219.43 324.888L215.732 329.039C211.538 333.75 210.849 340.61 214.035 346.059L230.316 374.009C233.502 379.474 239.345 382.823 245.652 382.823H252.392C257.274 382.823 260.908 378.336 259.9 373.56L251.415 333.414C249.606 324.824 242.034 318.685 233.261 318.685C227.995 318.669 222.952 320.929 219.43 324.888Z" fill="white"/>
<path fill-rule="evenodd" clip-rule="evenodd" d="M219.13 324.621C222.728 320.577 227.879 318.269 233.261 318.285C242.222 318.285 249.957 324.555 251.806 333.331M251.806 333.331L260.29 373.477C261.351 378.502 257.527 383.224 252.391 383.224H245.651C239.202 383.224 233.227 379.799 229.969 374.211L213.689 346.261C210.415 340.662 211.123 333.613 215.432 328.772L219.13 324.621M233.259 319.086C228.108 319.07 223.174 321.281 219.728 325.154L219.728 325.154L216.03 329.305C216.03 329.305 216.03 329.305 216.03 329.305C211.951 333.888 211.282 340.557 214.379 345.856L214.38 345.857L230.66 373.807C230.66 373.807 230.66 373.807 230.66 373.807C233.774 379.148 239.486 382.423 245.651 382.423H252.391C257.019 382.423 260.463 378.169 259.507 373.643L251.023 333.497L251.022 333.496C249.253 325.092 241.844 319.086 233.26 319.086L233.259 319.086Z" fill="#3FB1B5"/>
<path d="M232.028 336.971L253.048 377.743C254.04 379.586 255.273 380.772 256.682 381.525C255.465 382.342 253.992 382.839 252.391 382.839H245.652C239.328 382.839 233.485 379.474 230.315 374.025L214.035 346.058C213.378 344.921 212.882 343.735 212.546 342.501C210.241 333.926 219.99 327.195 227.306 332.228C228.971 333.365 230.604 334.904 232.028 336.971Z" fill="#3FB1B5"/>
<path d="M232.076 337.068H212.674C212.77 336.763 212.882 336.475 213.01 336.202H231.452C231.644 336.459 231.836 336.715 232.028 336.988L232.076 337.068Z" fill="white"/>
<path d="M234.925 342.581H212.577C212.577 342.549 212.561 342.517 212.561 342.501C212.497 342.244 212.433 341.972 212.385 341.716H234.493L234.925 342.581Z" fill="white"/>
<path d="M237.775 348.11H215.235L214.723 347.229H237.327L237.775 348.11Z" fill="white"/>
<path d="M240.625 353.639H218.453L217.94 352.758H240.176L240.625 353.639Z" fill="white"/>
<path d="M243.474 359.152H221.67L221.158 358.287H243.025L243.474 359.152Z" fill="white"/>
<path d="M246.323 364.681H224.888L224.376 363.8H245.859L246.323 364.681Z" fill="white"/>
<path d="M249.173 370.21H228.106L227.593 369.329H248.709L249.173 370.21Z" fill="white"/>
<path d="M252.006 375.724H231.451C231.243 375.435 231.035 375.147 230.843 374.858H251.558L252.006 375.724Z" fill="white"/>
<path d="M256.217 381.253H238.351C237.775 380.996 237.215 380.708 236.67 380.387H255.064C255.432 380.708 255.816 380.996 256.217 381.253Z" fill="white"/>
<path d="M194.375 290.159C194.231 294.39 182.241 297.819 167.481 297.819C152.721 297.819 140.731 294.406 140.587 290.159V256.84H194.375V290.159Z" fill="#73325A"/>
<path d="M190.805 295.688L190.725 299.646L189.956 338.286V337.164C189.956 327.244 181.92 319.199 172.011 319.199H170.922C165.864 319.199 161.301 321.17 157.923 324.343L155.57 308.413L154.113 298.557C158.051 299.214 162.614 299.582 167.464 299.582C177.454 299.566 186.146 297.996 190.805 295.688Z" fill="#A0505A"/>
<path d="M190.804 295.688L190.724 299.646C184.768 303.877 166.375 309.086 155.585 308.397L154.128 298.54C158.066 299.181 162.629 299.566 167.479 299.566C177.453 299.566 186.145 297.996 190.804 295.688Z" fill="#73325A"/>
<path d="M172.829 383.352H175.807C183.619 383.352 189.958 377.006 189.958 369.185V337.164C189.958 327.244 181.922 319.198 172.013 319.198H170.924C159.398 319.198 150.513 329.375 152.066 340.818L155.828 368.512C156.997 377.006 164.248 383.352 172.829 383.352Z" fill="white"/>
<path fill-rule="evenodd" clip-rule="evenodd" d="M151.669 340.872C150.083 329.189 159.155 318.798 170.924 318.798H172.012C182.142 318.798 190.358 327.023 190.358 337.164V369.185C190.358 377.227 183.839 383.753 175.806 383.753H172.829C164.048 383.753 156.627 377.259 155.431 368.567L151.669 340.872ZM152.462 340.764L156.224 368.457C157.365 376.753 164.448 382.952 172.829 382.952H175.806C183.397 382.952 189.558 376.785 189.558 369.185V337.164C189.558 327.465 181.7 319.599 172.012 319.599H170.924C159.64 319.599 150.942 329.562 152.462 340.764Z" fill="#3FB1B5"/>
<path d="M185.508 379.49C182.979 381.878 179.553 383.352 175.807 383.352H172.83C164.249 383.352 156.997 377.006 155.845 368.512L152.083 340.818C152.019 340.289 151.954 339.76 151.938 339.247C152.899 333.109 158.198 328.414 164.601 328.414C167.755 328.414 170.668 329.568 172.926 331.491C175.183 333.414 176.768 336.122 177.264 339.247L182.211 373.047C182.579 375.563 183.764 377.807 185.508 379.49Z" fill="#3FB1B5"/>
<path d="M175.773 334.969H153.409C153.57 334.664 153.762 334.376 153.954 334.103H175.245C175.437 334.376 175.613 334.664 175.773 334.969Z" fill="white"/>
<path d="M177.439 340.482H152.034C152.002 340.193 151.97 339.905 151.954 339.616H177.311L177.439 340.482Z" fill="white"/>
<path d="M178.255 346.011H152.786L152.658 345.146H178.127L178.255 346.011Z" fill="white"/>
<path d="M179.055 351.54H153.538L153.409 350.659H178.927L179.055 351.54Z" fill="white"/>
<path d="M179.872 357.053H154.29L154.162 356.188H179.744L179.872 357.053Z" fill="white"/>
<path d="M180.672 362.583H155.027L154.915 361.717H180.544L180.672 362.583Z" fill="white"/>
<path d="M181.488 368.111H155.778L155.666 367.23H181.36L181.488 368.111Z" fill="white"/>
<path d="M182.305 373.624H157.364C157.22 373.336 157.091 373.048 156.979 372.759H182.161L182.209 373.047C182.241 373.24 182.273 373.432 182.305 373.624Z" fill="white"/>
<path d="M185.17 379.154H161.59C161.269 378.881 160.949 378.577 160.661 378.288H184.434C184.658 378.593 184.914 378.881 185.17 379.154Z" fill="white"/>
<path d="M206.014 116.976V143.965C204.845 140.904 195.592 141.337 185.411 145.199C176.686 148.516 170.139 153.068 169.178 156.225V118.242C169.178 106.944 175.214 96.8471 184.483 91.334C196.521 93.4335 206.014 103.931 206.014 116.976Z" fill="#FFCF2D"/>
<path d="M168.474 92.552C160.277 98.2574 155.059 107.729 155.059 118.242V149.574H109.482L115.774 122.457C118.447 110.902 126.803 101.687 137.689 97.7606L168.474 92.552Z" fill="#FFCF2D"/>
<path d="M260.651 226.661V289.565C260.651 285.286 248.084 281.824 233.228 281.824C218.372 281.824 206.334 285.286 206.334 289.565V259.419C206.334 258.009 205.181 256.855 203.772 256.855H122.065C97.4916 256.855 79.3219 233.953 84.8768 209.994L104.599 124.925C107.737 111.351 118.719 101.014 132.438 98.6738L137.689 97.7763C126.803 101.703 118.447 110.918 115.773 122.473L109.482 149.59H155.058V118.242C155.058 107.729 160.293 98.2411 168.473 92.5517L175.677 91.3337C177.166 91.0773 178.623 90.9651 180.08 90.9651C180.272 90.9651 180.448 90.9651 180.64 90.9651C180.816 90.9651 180.992 90.9811 181.152 90.9811C181.184 90.9811 181.216 90.9811 181.248 90.9811C181.376 90.9811 181.52 90.9971 181.648 90.9971C181.664 90.9971 181.696 90.9971 181.712 90.9971C181.792 90.9971 181.873 91.0132 181.937 91.0132C182.081 91.0292 182.209 91.0292 182.353 91.0452C182.513 91.0612 182.689 91.0773 182.849 91.0933C183.009 91.1093 183.153 91.1254 183.313 91.1414C183.345 91.1414 183.377 91.1574 183.425 91.1574C183.585 91.1734 183.762 91.2055 183.922 91.2215C183.938 91.2215 183.954 91.2215 183.954 91.2215C184.13 91.2536 184.306 91.2696 184.482 91.3016C175.213 96.8148 169.178 106.911 169.178 118.21V195.217H229.274C246.595 195.249 260.651 209.305 260.651 226.661Z" fill="#FE5244"/>
<path fill-rule="evenodd" clip-rule="evenodd" d="M169.908 91.5721C170.06 91.7901 170.006 92.0897 169.788 92.2413C161.699 97.8718 155.522 107.911 155.522 118.242V150.055H108.861L115.289 122.349M169.908 91.5721C169.757 91.3541 169.457 91.3002 169.24 91.4518ZM169.24 91.4518C160.936 97.2322 154.562 107.547 154.562 118.242ZM154.562 118.242V149.093ZM154.562 149.093H110.07Z" fill="white"/>
<path fill-rule="evenodd" clip-rule="evenodd" d="M215.545 225.011C215.747 225.183 215.773 225.486 215.602 225.689C209.928 232.413 206.814 240.942 206.814 249.755C206.814 250.021 206.599 250.236 206.334 250.236C206.069 250.236 205.854 250.021 205.854 249.755C205.854 240.715 209.047 231.967 214.868 225.068C215.039 224.866 215.342 224.84 215.545 225.011Z" fill="white"/>
<path d="M139.754 246.566C139.674 246.566 139.594 246.55 139.53 246.502L137.417 245.348C137.177 245.22 137.097 244.931 137.225 244.691C137.353 244.451 137.641 244.371 137.881 244.499L139.994 245.653C140.234 245.781 140.314 246.069 140.186 246.31C140.09 246.47 139.93 246.566 139.754 246.566ZM141.867 246.021C141.691 246.021 141.531 245.925 141.451 245.765C141.323 245.524 141.403 245.236 141.643 245.108L143.756 243.954C143.996 243.826 144.285 243.922 144.413 244.146C144.541 244.387 144.461 244.675 144.221 244.803L142.107 245.957C142.027 245.989 141.947 246.021 141.867 246.021ZM135.528 244.274C135.448 244.274 135.368 244.258 135.304 244.21L133.191 243.056C132.951 242.928 132.871 242.64 132.999 242.399C133.127 242.159 133.415 242.079 133.655 242.207L135.768 243.361C136.008 243.489 136.088 243.778 135.96 244.018C135.864 244.178 135.704 244.274 135.528 244.274ZM146.078 243.713C145.901 243.713 145.741 243.617 145.661 243.457C145.533 243.217 145.613 242.928 145.853 242.8L147.967 241.646C148.335 241.454 148.671 241.229 149.007 240.989C149.215 240.829 149.519 240.877 149.679 241.085C149.84 241.293 149.792 241.598 149.583 241.758C149.215 242.031 148.831 242.271 148.431 242.495L146.318 243.649C146.238 243.697 146.158 243.713 146.078 243.713ZM131.35 241.902C131.254 241.902 131.158 241.87 131.062 241.806C130.389 241.309 129.765 240.733 129.237 240.075C129.06 239.867 129.092 239.563 129.301 239.402C129.509 239.226 129.813 239.258 129.973 239.466C130.453 240.059 131.014 240.572 131.622 241.021C131.83 241.181 131.878 241.486 131.734 241.694C131.654 241.838 131.51 241.902 131.35 241.902ZM151.024 240.22C150.912 240.22 150.816 240.188 150.72 240.107C150.512 239.947 150.48 239.643 150.656 239.434C151.136 238.841 151.536 238.2 151.857 237.495C151.969 237.255 152.257 237.143 152.497 237.255C152.737 237.367 152.849 237.655 152.737 237.896C152.385 238.665 151.937 239.386 151.408 240.027C151.296 240.156 151.168 240.22 151.024 240.22ZM128.34 238.232C128.164 238.232 127.988 238.136 127.908 237.96C127.556 237.191 127.3 236.389 127.139 235.556C127.091 235.3 127.268 235.043 127.524 234.995C127.78 234.947 128.036 235.123 128.084 235.38C128.228 236.133 128.452 236.854 128.772 237.543C128.884 237.784 128.772 238.072 128.532 238.184C128.468 238.216 128.404 238.232 128.34 238.232ZM153.009 235.893C152.977 235.893 152.945 235.893 152.929 235.893C152.673 235.844 152.497 235.588 152.545 235.332C152.641 234.803 152.689 234.274 152.689 233.745V233.024C152.689 232.751 152.897 232.543 153.169 232.543C153.442 232.543 153.65 232.751 153.65 233.024V233.745C153.65 234.338 153.602 234.931 153.49 235.508C153.442 235.732 153.233 235.893 153.009 235.893ZM127.46 233.553C127.187 233.553 126.979 233.344 126.979 233.072V230.668C126.979 230.395 127.187 230.187 127.46 230.187C127.732 230.187 127.94 230.395 127.94 230.668V233.072C127.94 233.328 127.716 233.553 127.46 233.553ZM153.153 231.101C152.881 231.101 152.673 230.892 152.673 230.62V228.216C152.673 227.943 152.881 227.735 153.153 227.735C153.425 227.735 153.634 227.943 153.634 228.216V230.62C153.634 230.892 153.425 231.101 153.153 231.101ZM127.46 228.745C127.187 228.745 126.979 228.536 126.979 228.264V225.86C126.979 225.587 127.187 225.379 127.46 225.379C127.732 225.379 127.94 225.587 127.94 225.86V228.264C127.94 228.52 127.716 228.745 127.46 228.745ZM153.153 226.293C152.881 226.293 152.673 226.084 152.673 225.812V223.408C152.673 223.135 152.881 222.927 153.153 222.927C153.425 222.927 153.634 223.135 153.634 223.408V225.812C153.634 226.084 153.425 226.293 153.153 226.293ZM127.46 223.937C127.187 223.937 126.979 223.728 126.979 223.456V221.052C126.979 220.78 127.187 220.571 127.46 220.571C127.732 220.571 127.94 220.78 127.94 221.052V223.456C127.94 223.712 127.716 223.937 127.46 223.937ZM153.153 221.485C152.881 221.485 152.673 221.276 152.673 221.004V218.6C152.673 218.327 152.881 218.119 153.153 218.119C153.425 218.119 153.634 218.327 153.634 218.6V221.004C153.634 221.276 153.425 221.485 153.153 221.485ZM127.46 219.129C127.187 219.129 126.979 218.92 126.979 218.648V216.581H128.276C128.548 216.581 128.756 216.789 128.756 217.061C128.756 217.334 128.548 217.542 128.276 217.542H127.94V218.648C127.94 218.904 127.716 219.129 127.46 219.129ZM152.289 217.542H149.888C149.615 217.542 149.407 217.334 149.407 217.061C149.407 216.789 149.615 216.581 149.888 216.581H152.289C152.561 216.581 152.769 216.789 152.769 217.061C152.769 217.334 152.561 217.542 152.289 217.542ZM147.486 217.542H145.085C144.813 217.542 144.605 217.334 144.605 217.061C144.605 216.789 144.813 216.581 145.085 216.581H147.486C147.758 216.581 147.967 216.789 147.967 217.061C147.967 217.334 147.758 217.542 147.486 217.542ZM142.684 217.542H140.282C140.01 217.542 139.802 217.334 139.802 217.061C139.802 216.789 140.01 216.581 140.282 216.581H142.684C142.956 216.581 143.164 216.789 143.164 217.061C143.164 217.334 142.956 217.542 142.684 217.542ZM137.881 217.542H135.48C135.208 217.542 135 217.334 135 217.061C135 216.789 135.208 216.581 135.48 216.581H137.881C138.153 216.581 138.361 216.789 138.361 217.061C138.361 217.334 138.153 217.542 137.881 217.542ZM133.079 217.542H130.677C130.405 217.542 130.197 217.334 130.197 217.061C130.197 216.789 130.405 216.581 130.677 216.581H133.079C133.351 216.581 133.559 216.789 133.559 217.061C133.559 217.334 133.351 217.542 133.079 217.542Z" fill="white"/>
<path d="M94.4502 243.906C94.2741 243.906 94.114 243.81 94.0339 243.649C93.9059 243.409 93.9859 243.12 94.226 242.992L96.1791 241.918C96.2271 241.886 96.2751 241.87 96.3232 241.838C96.5473 241.71 96.8515 241.79 96.9795 242.015C97.1076 242.239 97.0275 242.543 96.8034 242.672C96.7554 242.704 96.7074 242.736 96.6433 242.752L94.6903 243.826C94.6102 243.89 94.5302 243.906 94.4502 243.906ZM98.5003 241.341C98.3723 241.341 98.2442 241.293 98.1481 241.181C97.972 240.989 97.9881 240.684 98.1802 240.508C98.7405 239.995 99.2367 239.402 99.6689 238.777C99.813 238.553 100.117 238.505 100.341 238.649C100.565 238.793 100.613 239.098 100.469 239.322C100.005 240.011 99.4448 240.652 98.8365 241.229C98.7244 241.309 98.6124 241.341 98.5003 241.341ZM101.174 237.399C101.11 237.399 101.062 237.383 100.998 237.367C100.758 237.271 100.629 236.998 100.726 236.742C100.998 236.021 101.19 235.283 101.302 234.53C101.334 234.274 101.574 234.081 101.846 234.114C102.102 234.146 102.294 234.386 102.262 234.658C102.15 235.492 101.942 236.309 101.638 237.094C101.542 237.287 101.366 237.399 101.174 237.399ZM101.862 232.687C101.59 232.687 101.382 232.479 101.382 232.206V229.802C101.382 229.53 101.59 229.322 101.862 229.322C102.134 229.322 102.342 229.53 102.342 229.802V232.206C102.342 232.463 102.134 232.687 101.862 232.687ZM101.862 227.879C101.59 227.879 101.382 227.671 101.382 227.398V224.994C101.382 224.722 101.59 224.514 101.862 224.514C102.134 224.514 102.342 224.722 102.342 224.994V227.398C102.342 227.655 102.134 227.879 101.862 227.879ZM101.862 223.071C101.59 223.071 101.382 222.863 101.382 222.59V220.187C101.382 219.914 101.59 219.706 101.862 219.706C102.134 219.706 102.342 219.914 102.342 220.187V222.59C102.342 222.847 102.134 223.071 101.862 223.071ZM101.862 218.263C101.59 218.263 101.382 218.055 101.382 217.783V217.542H100.181C99.9091 217.542 99.701 217.334 99.701 217.061C99.701 216.789 99.9091 216.581 100.181 216.581H102.342V217.783C102.342 218.039 102.134 218.263 101.862 218.263ZM97.7799 217.542H95.3787C95.1065 217.542 94.8984 217.334 94.8984 217.061C94.8984 216.789 95.1065 216.581 95.3787 216.581H97.7799C98.0521 216.581 98.2602 216.789 98.2602 217.061C98.2602 217.334 98.0361 217.542 97.7799 217.542ZM92.9774 217.542H90.5761C90.304 217.542 90.0958 217.334 90.0958 217.061C90.0958 216.789 90.304 216.581 90.5761 216.581H92.9774C93.2495 216.581 93.4576 216.789 93.4576 217.061C93.4576 217.334 93.2335 217.542 92.9774 217.542ZM88.1748 217.542H85.7735C85.5014 217.542 85.2933 217.334 85.2933 217.061C85.2933 216.789 85.5014 216.581 85.7735 216.581H88.1748C88.447 216.581 88.6551 216.789 88.6551 217.061C88.6551 217.334 88.431 217.542 88.1748 217.542Z" fill="white"/>
<path d="M206.013 143.967C207.182 147.028 199.786 152.461 189.62 156.323C179.455 160.185 170.346 160.778 169.177 157.701C168.009 154.624 175.229 149.079 185.41 145.217C195.591 141.354 204.844 140.89 206.013 143.967Z" fill="#FE5244"/>
<path d="M211.696 243.393V245.092C211.167 244.964 210.607 244.9 210.047 244.9H207.982C204.924 244.9 202.315 242.945 201.322 240.22L207.181 239.435C209.566 239.114 211.696 240.973 211.696 243.393Z" fill="#73325A"/>
<path d="M217.107 251.968V265.013C217.107 268.058 214.642 270.526 211.6 270.526H205.469C203.948 270.526 202.572 269.917 201.579 268.908C200.586 267.914 199.962 266.536 199.962 265.013H203.948C205.261 265.013 206.318 263.955 206.318 262.641V259.228C206.318 257.913 205.261 256.856 203.948 256.856H183.569C175.613 256.856 169.162 250.397 169.162 242.432V156.241C170.122 153.084 176.67 148.517 185.394 145.215C191.35 142.956 197.001 141.866 200.891 141.962V237.832C200.891 241.743 204.06 244.916 207.966 244.916H210.031C213.938 244.9 217.107 248.057 217.107 251.968Z" fill="#A0505A"/>
<path d="M200.891 141.946V150.664C197.993 152.619 194.071 154.623 189.605 156.305C179.423 160.168 170.33 160.761 169.162 157.684V156.225C170.122 153.068 176.67 148.501 185.394 145.199C191.366 142.939 197.001 141.85 200.891 141.946Z" fill="#73325A"/>
<path d="M174.268 77.022L168.249 92.5516L137.225 98.1128L145.325 77.022H174.268Z" fill="#A0505A"/>
<path d="M174.269 77.022L171.019 85.4198L140.251 90.2278L145.326 77.022H174.269Z" fill="#73325A"/>
<path d="M192.455 45.4181C192.455 47.5176 188.821 49.8415 184.627 51.7967C178.912 54.4731 172.172 56.5085 172.172 56.5085L167.626 65.0826C173.805 68.3681 176.222 74.2658 177.183 78.3846C177.791 81.013 177.791 82.8881 177.791 82.8881H134.216C134.216 82.8881 122.77 45.7707 150.352 36.8921C167.225 31.4591 192.455 40.4339 192.455 45.4181Z" fill="white"/>
<path fill-rule="evenodd" clip-rule="evenodd" d="M177.61 37.7139C169.238 35.5378 158.814 34.6722 150.499 37.3496C143.716 39.5329 139.354 43.4413 136.607 48.07C133.854 52.71 132.71 58.0988 132.419 63.2465C132.129 68.3922 132.693 73.2699 133.331 76.8655C133.649 78.6621 133.986 80.1355 134.243 81.1585C134.371 81.6699 134.48 82.0686 134.556 82.3385C134.562 82.3624 134.569 82.3853 134.575 82.4071H177.293C177.282 82.2127 177.264 81.9636 177.236 81.6675C177.162 80.8876 177.013 79.7833 176.714 78.4933C175.768 74.4356 173.402 68.6985 167.4 65.5071L166.976 65.2816L171.841 56.1059L172.033 56.048L172.08 56.2036C172.033 56.048 172.033 56.048 172.033 56.048L172.033 56.048L172.034 56.0477L172.051 56.0424C172.064 56.0385 172.083 56.0328 172.108 56.0251C172.158 56.0097 172.232 55.9868 172.329 55.9565C172.523 55.8961 172.808 55.8066 173.166 55.6908C173.884 55.4593 174.901 55.1225 176.096 54.7024C178.489 53.8616 181.585 52.6897 184.423 51.361L184.423 51.3607C186.508 50.3887 188.43 49.3358 189.823 48.2783C190.519 47.7494 191.067 47.232 191.436 46.7374C191.807 46.2412 191.974 45.8019 191.974 45.418C191.974 44.9917 191.695 44.4244 191 43.7405C190.32 43.0708 189.31 42.357 188.016 41.6397C185.431 40.2069 181.79 38.8005 177.61 37.7139ZM177.79 82.8879L178.271 82.8879L178.271 83.3687H133.861L133.756 83.0297L134.215 82.8879C133.756 83.0297 133.756 83.0294 133.756 83.029L133.754 83.0216L133.747 83.0001C133.742 82.9813 133.733 82.9536 133.723 82.9174C133.701 82.845 133.67 82.7383 133.631 82.5993C133.553 82.3211 133.442 81.9137 133.311 81.3929C133.05 80.3513 132.708 78.8556 132.385 77.0337C131.739 73.3923 131.165 68.4358 131.46 63.1923C131.756 57.9509 132.923 52.3956 135.781 47.5789C138.646 42.751 143.196 38.6902 150.205 36.4342C158.763 33.6786 169.39 34.584 177.851 36.7831C182.087 37.8841 185.808 39.3164 188.481 40.7984C189.816 41.5385 190.908 42.3012 191.674 43.055C192.425 43.7948 192.934 44.5983 192.934 45.418C192.934 46.0838 192.647 46.7223 192.205 47.3134C191.763 47.9061 191.139 48.4855 190.403 49.0444C188.93 50.1625 186.938 51.2492 184.829 52.2324C181.951 53.5801 178.821 54.7639 176.415 55.6097C175.21 56.033 174.185 56.3724 173.461 56.6061C173.099 56.7229 172.812 56.8134 172.615 56.8747C172.573 56.8877 172.536 56.8993 172.502 56.9096L168.271 64.8888C174.316 68.3076 176.697 74.1889 177.65 78.2752L177.65 78.2759C177.96 79.6142 178.115 80.7614 178.192 81.5761C178.231 81.9836 178.251 82.3084 178.261 82.5328C178.266 82.645 178.268 82.7322 178.269 82.7921C178.27 82.822 178.27 82.8452 178.27 82.8612C178.271 82.8693 178.271 82.8755 178.271 82.88L178.271 82.887V82.8877C178.271 82.8878 178.271 82.8879 177.79 82.8879Z" fill="#FFCF2D"/>
<path d="M146.317 42.1808C152.303 42.1808 157.155 37.3231 157.155 31.3309C157.155 25.3386 152.303 20.481 146.317 20.481C140.332 20.481 135.48 25.3386 135.48 31.3309C135.48 37.3231 140.332 42.1808 146.317 42.1808Z" fill="white"/>
<path fill-rule="evenodd" clip-rule="evenodd" d="M146.318 20.9616C140.597 20.9616 135.96 25.604 135.96 31.3307C135.96 37.0574 140.597 41.6999 146.318 41.6999C152.038 41.6999 156.675 37.0574 156.675 31.3307C156.675 25.604 152.038 20.9616 146.318 20.9616ZM135 31.3307C135 25.0729 140.067 20 146.318 20C152.569 20 157.636 25.0729 157.636 31.3307C157.636 37.5885 152.569 42.6615 146.318 42.6615C140.067 42.6615 135 37.5885 135 31.3307Z" fill="#FFCF2D"/>
<path d="M177.166 78.3832C176.27 74.4887 174.028 68.9436 168.505 65.5941H167.081C165.768 65.5941 164.567 65.0652 163.703 64.1998C162.838 63.3343 162.31 62.1323 162.31 60.8182C162.31 58.1738 164.439 56.0423 167.081 56.0423L173.116 56.1705H173.276C173.388 56.1384 173.5 56.0904 173.628 56.0583C175.261 55.7057 180.432 54.4557 184.722 52.3081L185.218 55.273L186.819 64.7767C187.908 71.2995 183.441 77.3094 177.166 78.3832Z" fill="#A0505A"/>
<path d="M185.203 55.2584C179.952 57.3899 173.1 56.1558 173.1 56.1558C173.1 56.1558 179.552 54.8737 184.706 52.2935L185.203 55.2584Z" fill="#73325A"/>
<path fill-rule="evenodd" clip-rule="evenodd" d="M167.097 58.4317C167.097 58.2104 167.276 58.031 167.497 58.031C169.543 58.031 171.195 59.6848 171.195 61.7331C171.195 61.9544 171.016 62.1338 170.795 62.1338C170.574 62.1338 170.394 61.9544 170.394 61.7331C170.394 60.1274 169.101 58.8323 167.497 58.8323C167.276 58.8323 167.097 58.6529 167.097 58.4317Z" fill="#73325A"/>
<path fill-rule="evenodd" clip-rule="evenodd" d="M205.857 419.918L187.272 265.07L188.225 264.956L206.811 419.803L205.857 419.918Z" fill="#66B0F0"/>
<path fill-rule="evenodd" clip-rule="evenodd" d="M88.1308 419.803L106.701 264.956L107.654 265.07L89.0845 419.918L88.1308 419.803Z" fill="#66B0F0"/>
<path fill-rule="evenodd" clip-rule="evenodd" d="M199.947 367.166H94.9786V366.204H199.947V367.166Z" fill="#66B0F0"/>
<path d="M91.0248 265.013H203.901C205.246 265.013 206.334 263.923 206.334 262.577V259.276C206.334 257.929 205.246 256.84 203.901 256.84H91.0248C89.6801 256.84 88.5916 257.929 88.5916 259.276V262.577C88.6076 263.923 89.6961 265.013 91.0248 265.013Z" fill="white"/>
<path fill-rule="evenodd" clip-rule="evenodd" d="M88.1106 259.275C88.1106 257.664 89.4142 256.359 91.0241 256.359H203.9C205.51 256.359 206.814 257.664 206.814 259.275V262.577C206.814 264.189 205.51 265.494 203.9 265.494H91.0241C89.4271 265.494 88.1297 264.187 88.1106 262.583L88.1106 262.58V259.275ZM91.0241 257.32C89.9447 257.32 89.0711 258.195 89.0711 259.275V262.574C89.0855 263.661 89.9647 264.532 91.0241 264.532H203.9C204.98 264.532 205.853 263.658 205.853 262.577V259.275C205.853 258.195 204.98 257.32 203.9 257.32H91.0241Z" fill="#FFCF2D"/>
</svg>
