<svg width="16" height="16" viewBox="0 0 16 16" fill="none" xmlns="http://www.w3.org/2000/svg">
<path d="M8.66666 4.33334C8.66666 3.96515 8.36818 3.66667 7.99999 3.66667C7.6318 3.66667 7.33332 3.96515 7.33332 4.33334V8C7.33332 8.17682 7.40356 8.34638 7.52859 8.47141L9.52858 10.4714C9.78893 10.7318 10.211 10.7318 10.4714 10.4714C10.7317 10.2111 10.7317 9.78895 10.4714 9.5286L8.66666 7.72386V4.33334Z" fill="#787A80"/>
<path fill-rule="evenodd" clip-rule="evenodd" d="M7.99999 0.666672C3.9499 0.666672 0.666656 3.94992 0.666656 8C0.666656 12.0501 3.9499 15.3333 7.99999 15.3333C12.0501 15.3333 15.3333 12.0501 15.3333 8C15.3333 3.94992 12.0501 0.666672 7.99999 0.666672ZM1.99999 8C1.99999 4.6863 4.68628 2.00001 7.99999 2.00001C11.3137 2.00001 14 4.6863 14 8C14 11.3137 11.3137 14 7.99999 14C4.68628 14 1.99999 11.3137 1.99999 8Z" fill="#787A80"/>
</svg>
